<svg width="40" height="40" viewBox="0 0 40 40" fill="none" xmlns="http://www.w3.org/2000/svg">
<path d="M38.9814 18.2432L21.7574 1.02003C20.7661 0.0281543 19.1574 0.0281543 18.1645 1.02003L14.5886 4.5969L19.1255 9.13378C20.1802 8.77784 21.3889 9.01659 22.2292 9.8569C22.6297 10.2577 22.9093 10.7632 23.036 11.3154C23.1627 11.8676 23.1314 12.4444 22.9458 12.9797L27.3183 17.3528C28.3761 16.9882 29.597 17.2238 30.4414 18.07C31.6227 19.2503 31.6227 21.1638 30.4414 22.3447C30.1607 22.6256 29.8274 22.8484 29.4606 23.0004C29.0937 23.1524 28.7005 23.2306 28.3034 23.2306C27.9064 23.2306 27.5132 23.1524 27.1463 23.0004C26.7795 22.8484 26.4462 22.6256 26.1655 22.3447C25.7437 21.9227 25.4562 21.3854 25.3392 20.8003C25.2221 20.2153 25.2807 19.6087 25.5077 19.0569L21.4302 14.9791L21.4295 25.7107C21.7254 25.8563 21.9955 26.0493 22.2292 26.2819C23.4102 27.4622 23.4102 29.375 22.2292 30.5578C21.0483 31.7382 19.1342 31.7382 17.9545 30.5578C16.7739 29.3753 16.677 27.4625 17.8574 26.2819C18.1492 25.9903 18.437 25.77 18.7495 25.6225V14.7916C18.437 14.6441 18.1495 14.4253 17.857 14.1319C16.963 13.2382 16.7958 11.9257 17.2545 10.8269L12.8067 6.35409L1.0086 18.1635C0.0164136 19.1563 0.0226636 20.765 1.01485 21.7572L18.2417 38.9803C19.2333 39.9722 20.8433 39.9722 21.8364 38.9803L38.9802 21.8372C39.9724 20.8447 39.9733 19.235 38.9814 18.2432Z" fill="#1E232B"/>
</svg>
