<svg width="40" height="40" viewBox="0 0 40 40" fill="none" xmlns="http://www.w3.org/2000/svg">
<path d="M20.5209 39.9935C19.4761 39.923 18.2097 39.7664 17.5823 39.6254L17.2303 39.5471L16.8947 38.8694C16.7107 38.5016 16.3535 37.6945 16.0993 37.0797C15.8447 36.465 15.5849 35.8306 15.52 35.6698L15.3957 35.376L14.9952 35.3879C14.2535 35.4114 13.1767 35.2744 12.3216 35.0473C11.6881 34.8787 11.136 34.7027 10.0752 34.3226C9.55566 34.1384 8.84124 33.9034 8.49486 33.8056C7.25566 33.4532 7.21756 33.4099 7.14742 32.1529C7.12577 31.6632 7.08766 31.119 7.06602 30.9426L7.02835 30.6177L6.50314 30.2652C5.87012 29.8423 4.93358 29.0981 4.32741 28.5379C1.71349 26.1098 0.181603 23.0826 0.0192344 20.0356C-0.0942069 17.901 0.289849 16.0838 1.28571 14.1062C2.35214 11.9716 4.31138 9.85677 6.63303 8.33345L7.29896 7.89858L7.33143 7.55801C7.40158 6.85306 7.67782 6.10895 8.02421 5.6819C8.25672 5.39616 8.733 5.05152 9.06336 4.9262C9.28505 4.84004 9.32835 4.80463 9.39892 4.63231C9.51799 4.33466 9.86957 3.83744 10.151 3.56705C10.6004 3.13625 11.4824 2.61929 12.4839 2.19632C13.4633 1.78525 14.8056 1.25262 15.2442 1.1038C16.0612 0.821821 18.172 0.273526 18.2369 0.324283C18.2534 0.336189 18.2911 0.328356 18.3235 0.308617C18.5024 0.203031 20.1529 0.038543 21.3328 0.00721192C23.9796 -0.0632831 26.6043 0.386945 28.2388 1.18589C29.3919 1.75768 31.0588 2.97959 31.914 3.8882C32.78 4.80463 33.3372 6.2537 33.597 8.23539L33.6295 8.50954L34.2629 8.98357C34.8851 9.44571 35.6536 10.1153 36.2005 10.6714C36.5737 11.0474 37.2449 11.8228 37.2449 11.8817C37.2449 11.909 37.2665 11.9365 37.2882 11.9444C37.3964 11.9716 38.452 13.5303 38.5113 13.7381C38.5222 13.7694 38.5763 13.8791 38.636 13.9768C38.701 14.0749 38.8469 14.3763 38.966 14.6426C40.1839 17.349 40.3299 20.2549 39.3829 22.9886C39.0257 24.0225 38.5819 24.9035 37.9376 25.8789C37.7376 26.1881 37.5479 26.4544 37.5263 26.4663C37.5047 26.4779 37.4237 26.5798 37.3423 26.6894L37.1907 26.8971L37.4129 26.9755C37.9701 27.1829 38.3381 27.6256 38.8525 28.7181C39.2799 29.6229 39.4154 30.0302 39.4479 30.4805C39.5128 31.4282 39.0634 32.4427 38.3598 32.9519C38.0784 33.1515 37.9757 33.1984 37.651 33.2689C37.4453 33.3159 37.1041 33.3748 36.8933 33.3983C36.3464 33.4648 35.1289 33.4532 34.4469 33.3786C33.8083 33.3043 33.6728 33.2495 33.4779 32.9791L33.3753 32.8422L32.6176 32.8657C31.8651 32.8851 31.4862 32.9362 30.9073 33.0888L30.5986 33.1712L30.5661 33.367C30.5176 33.6136 30.3444 33.7508 29.9491 33.8526C29.7001 33.9153 29.6625 33.9426 29.6352 34.0563C29.5594 34.342 29.6569 34.9843 29.8733 35.6896C30.1548 36.5784 30.1981 36.9115 30.079 37.2091C29.9223 37.5967 29.5001 37.8044 28.5311 37.9611L28.0171 38.0432L28.0007 38.1804C27.9899 38.2547 28.0063 38.4781 28.0388 38.6817C28.0981 39.042 28.0981 39.0495 27.963 39.2181C27.4811 39.8134 26.3878 39.9779 22.7672 39.9973C21.6683 40.0014 20.6565 40.0014 20.5209 39.9935ZM23.6761 39.2297C23.8168 39.2065 24.0441 39.1946 24.174 39.2065C24.3095 39.214 24.4178 39.2103 24.4178 39.1908C24.4178 39.1711 24.5204 39.1554 24.6503 39.1554C25.208 39.1554 27.059 38.8697 27.1075 38.7757C27.1239 38.7481 27.0966 38.5407 27.0481 38.3214C26.9126 37.7023 26.8585 37.1816 26.7719 35.5329C26.7286 34.6945 26.6528 33.7076 26.6095 33.3398C26.5662 32.9754 26.4796 32.0119 26.4203 31.2052C26.2956 29.5092 26.2307 29.0627 26.1008 29.0355C26.0523 29.0236 25.7708 28.9885 25.4729 28.9572C23.1838 28.7065 19.7143 28.8083 16.218 29.2272C15.0978 29.3604 15.1788 29.341 15.152 29.5054C15.1411 29.5797 15.1463 29.6502 15.1628 29.658C15.2113 29.6815 15.3412 30.5629 15.3035 30.6099C15.287 30.6334 15.2927 30.6569 15.3251 30.6647C15.352 30.6685 15.3901 30.79 15.4009 30.931C15.4117 31.072 15.4442 31.2168 15.4602 31.2559C15.4819 31.2913 15.4875 31.3656 15.4767 31.4204C15.4602 31.4715 15.4659 31.5222 15.4819 31.5263C15.536 31.542 15.769 32.6893 15.7309 32.7326C15.7148 32.7561 15.7257 32.7717 15.7525 32.7717C15.785 32.7717 15.8123 32.8109 15.8123 32.8579C15.8123 32.9635 16.0881 34.0209 16.3046 34.7415C16.3911 35.0392 16.4509 35.2976 16.4344 35.3211C16.4128 35.3409 16.4236 35.3565 16.4509 35.3565C16.4777 35.3565 16.5535 35.5367 16.6241 35.7598C16.7756 36.2532 17.2627 37.5184 17.5494 38.1842L17.7659 38.6855L18.0473 38.7441C18.5128 38.8421 19.4926 38.9947 19.9689 39.0458C20.2122 39.073 20.4127 39.1006 20.4127 39.1163C20.4127 39.1279 20.5911 39.1398 20.8024 39.1435C21.0189 39.1514 21.2354 39.167 21.2787 39.1789C21.3219 39.1946 21.5493 39.2024 21.7766 39.1984C22.0039 39.1905 22.226 39.2024 22.2637 39.2181C22.3014 39.2375 22.5075 39.2454 22.7131 39.2416C22.924 39.2375 23.1296 39.2494 23.1729 39.2689C23.2162 39.2924 23.292 39.3043 23.3353 39.2923C23.3786 39.2845 23.5358 39.2573 23.6761 39.2297ZM27.9682 37.2756C28.2064 37.2521 28.5744 37.1932 28.7801 37.1424L29.1533 37.0525L29.1481 36.6452C29.1425 36.2416 29.0831 35.9283 28.8286 35.0432C28.7584 34.7966 28.677 34.4636 28.6393 34.311L28.5744 34.025H28.3739C28.2657 34.025 28.0332 34.0525 27.8652 34.0839C27.692 34.1152 27.4755 34.1425 27.3837 34.1425H27.2157L27.2482 34.9179C27.3023 36.226 27.4053 37.3147 27.4703 37.3147C27.508 37.3147 27.7301 37.2953 27.9682 37.2756ZM15.5416 34.4595C15.5416 34.4009 15.4442 33.8448 15.3251 33.2219C15.0329 31.7065 14.8432 30.5588 14.7999 30.1164C14.7839 29.9168 14.7458 29.7442 14.719 29.7326C14.6973 29.721 14.6757 29.6464 14.6757 29.5603C14.6757 29.4115 14.67 29.4115 14.3942 29.3645C14.1886 29.3253 13.8422 29.3215 13.1221 29.341C12.186 29.3645 12.1319 29.3645 12.1319 29.298C12.1319 29.1727 12.2943 29.0552 12.5268 29.0082C13.0412 28.9102 13.2196 28.8475 13.2737 28.7497C13.3386 28.6244 13.2845 28.4678 13.133 28.3462C13.068 28.2914 12.9814 28.2093 12.9489 28.1623C12.8788 28.0642 12.868 27.9154 12.9329 27.9154C12.9598 27.9154 13.2035 28.0172 13.4741 28.1466C14.0747 28.4245 14.2804 28.4913 14.3618 28.4324C14.4484 28.3697 14.5618 27.9702 14.5999 27.6021C14.6216 27.4063 14.5943 26.9755 14.5458 26.5641C14.4051 25.4167 14.4427 24.9154 14.6809 24.7588C14.8056 24.6764 14.9463 24.7118 14.9463 24.833C14.9463 24.8841 14.9731 24.9427 15.0056 24.9662C15.0597 25.0054 14.9896 26.1411 14.9138 26.388C14.8974 26.4388 14.8865 26.8304 14.8865 27.2574C14.8922 27.9975 14.9298 28.2716 15.0654 28.5144L15.1247 28.6241L15.5633 28.6006C15.8066 28.589 16.402 28.542 16.8947 28.5029C17.387 28.4596 17.9447 28.4167 18.1395 28.4089C18.3344 28.397 18.8431 28.3619 19.2761 28.3305C19.7091 28.2992 20.0988 28.2757 20.1421 28.2757C20.1854 28.2757 20.5915 28.256 21.0353 28.2325C21.6792 28.1974 23.925 28.1112 24.2446 28.1112C24.3909 28.1112 24.2987 28.0053 24.1091 27.9583C23.3189 27.7547 20.5369 26.7796 20.0607 26.5447C19.5792 26.3056 19.5627 26.0434 20.0014 25.6126C20.2936 25.3306 20.4127 25.1661 20.4127 25.0564C20.4127 24.9584 20.3802 24.9584 20.0607 25.0602C19.5194 25.2325 19.1354 25.0837 18.789 24.5746C18.5565 24.2262 17.9282 22.6988 17.8092 22.1934L17.7442 21.8958L16.4561 21.4336C14.4211 20.7055 13.9071 20.4429 12.9814 19.6716C12.7489 19.4795 12.4727 19.2718 12.37 19.2132L12.1804 19.1114L11.7041 19.2602C10.1185 19.7574 8.49486 20.4743 6.41091 21.6022L5.31244 22.1934L5.47481 22.4522C5.5614 22.5932 5.62072 22.7066 5.6047 22.7066C5.59388 22.7066 5.61553 22.7458 5.65882 22.7965C5.99439 23.1725 6.81705 25.0799 7.23358 26.4507C7.4176 27.0576 7.70466 28.1933 7.68821 28.256C7.68301 28.2716 7.69384 28.3186 7.72068 28.3578C7.74233 28.3932 7.74796 28.4674 7.73714 28.5223C7.72068 28.5733 7.72631 28.6244 7.74233 28.6282C7.82893 28.6554 8.10517 30.7274 8.15367 31.6946C8.20259 32.5643 8.20822 32.5994 8.40306 32.6583C8.49486 32.6815 8.59791 32.7247 8.63038 32.7523C8.7278 32.8187 10.6814 33.555 11.4339 33.8094C12.6082 34.201 13.9937 34.5028 14.9194 34.5614C15.0978 34.5733 15.2494 34.5852 15.2602 34.5927C15.2658 34.5968 15.336 34.5927 15.4065 34.5811C15.5092 34.5695 15.5416 34.5379 15.5416 34.4595ZM28.2605 33.3789C29.359 33.2379 29.2563 33.289 29.2182 32.9328C29.1966 32.768 29.1481 32.2905 29.0992 31.8713C28.9749 30.7158 28.8558 29.8623 28.8017 29.7758C28.7588 29.673 28.7244 29.5684 28.6987 29.4625C28.6662 29.3334 28.6121 29.1574 28.5796 29.075L28.5203 28.9224L28.0007 28.9459C27.7084 28.9575 27.3296 28.9929 27.1564 29.0201L26.8368 29.0712L26.8749 30.0895C26.9074 31.0213 27.0265 32.6348 27.1023 33.2342C27.1347 33.477 27.1347 33.477 27.3079 33.477C27.3997 33.477 27.8327 33.4337 28.2605 33.3789ZM35.9459 32.9209C35.9459 32.9011 36.0269 32.8895 36.1243 32.8895C36.3789 32.8895 36.9959 32.7877 37.2232 32.7094C37.9537 32.4587 38.4897 31.7497 38.4897 31.0332C38.4897 30.4338 37.8129 28.5188 37.4397 28.0567C37.1691 27.7199 36.5681 27.4495 36.0918 27.4457C35.8918 27.4457 35.7238 27.489 35.3073 27.6378C35.0202 27.7393 34.3815 27.9273 33.8892 28.0489C32.8553 28.3114 32.1842 28.5345 31.9677 28.699L31.8161 28.8124L31.93 29.1768C32.0976 29.7016 32.2006 30.1988 32.3465 31.2641C32.4223 31.781 32.4821 32.2197 32.4821 32.2394C32.4821 32.2629 32.9311 32.2629 33.6078 32.2394C34.2248 32.2197 34.9825 32.204 35.2964 32.2081C35.9026 32.2081 36.5629 32.2864 36.4274 32.3412C36.3841 32.3569 35.9619 32.4274 35.4857 32.4979C35.0094 32.5643 34.5114 32.6583 34.3764 32.7015L34.1326 32.7799L34.295 32.8347C34.3872 32.8619 34.5114 32.8855 34.5764 32.8895C34.6413 32.8895 34.7063 32.9011 34.7171 32.9209C34.7336 32.9365 35.015 32.9481 35.3449 32.9481C35.6753 32.9481 35.9459 32.9365 35.9459 32.9209ZM30.777 32.6154C30.896 32.6038 31.1723 32.549 31.3888 32.4979L31.7785 32.4039V31.9534C31.7785 31.5188 31.6269 30.4733 31.5022 30.0776C31.3996 29.7251 31.2264 29.3453 31.064 29.0828L30.896 28.8165H29.7218V28.9261C29.7218 29.0555 29.8244 29.6195 30.0249 30.5516C30.1007 30.9157 30.1491 31.2211 30.1331 31.233C30.1167 31.2487 30.1275 31.28 30.16 31.3073C30.1924 31.3346 30.2306 31.4875 30.2466 31.6441C30.2574 31.8008 30.3007 32.1022 30.3332 32.314C30.3821 32.6389 30.4037 32.6937 30.4739 32.6702C30.5228 32.6545 30.6583 32.631 30.777 32.6154ZM6.80623 28.8278C6.55163 27.3787 6.25418 26.4898 5.66402 25.3892C5.31244 24.7312 4.60321 23.3097 4.39235 22.8438C4.27328 22.5813 4.20834 22.3425 4.19188 22.1191C4.14339 21.563 4.32178 21.3985 5.38821 20.9991C5.79046 20.8463 6.18074 20.6776 6.55726 20.4937C7.17946 20.1844 7.9913 19.8282 9.39849 19.2404C11.0655 18.5436 11.3469 18.4221 11.5309 18.2967C11.6989 18.1871 11.7149 18.1558 11.7097 17.9834C11.7041 17.7485 11.6232 17.6037 11.2659 17.1883C10.8382 16.691 10.5623 16.1387 10.4649 15.6023L10.4268 15.3751L10.0211 15.2849C9.26859 15.1245 8.81959 14.9324 8.29439 14.5564C6.77895 13.4639 6.23253 11.0123 7.26086 9.92351C7.44487 9.72769 7.47735 9.66503 7.47735 9.49271C7.47735 9.22639 7.42322 8.99924 7.35828 8.99924C7.331 8.99924 7.05519 9.18315 6.74648 9.40654C4.13907 11.3176 2.34511 13.7304 1.57797 16.358C1.25843 17.4467 1.17746 18.0304 1.17746 19.2993C1.17183 20.4743 1.20431 20.7797 1.4208 21.7469C1.92955 23.9714 3.28262 26.2079 5.21502 28.0053C5.70212 28.4596 6.82788 29.3761 6.86555 29.3488C6.882 29.341 6.85472 29.106 6.80623 28.8278ZM28.125 28.0642C28.2172 28.0445 28.7151 28.0131 29.2347 27.9937C30.3656 27.9505 30.7986 27.8803 30.9991 27.7117C31.1939 27.5394 31.2749 27.4141 31.8326 26.4077C32.9583 24.3671 33.8892 22.0214 33.8892 21.2143C33.8892 20.7443 33.7702 20.6152 32.8068 20.055C32.5847 19.926 31.93 19.4911 31.3507 19.0879C30.777 18.6884 30.2847 18.3594 30.263 18.3594C30.2414 18.3594 30.1167 18.4337 29.9868 18.5277C29.8569 18.6179 29.5538 18.8059 29.3213 18.9469C29.0831 19.0879 28.8827 19.221 28.8719 19.2483C28.8502 19.2953 28.9857 19.2953 29.0507 19.2483C29.0723 19.2326 29.2182 19.221 29.3698 19.221C29.5971 19.221 29.6945 19.2445 29.8677 19.3344C30.0898 19.4519 30.3496 19.6791 30.3007 19.7145C30.2847 19.7261 30.344 19.8476 30.4254 19.9808C30.8692 20.6857 30.9069 22.1856 30.5012 22.8868C30.4579 22.9572 30.4254 23.055 30.4254 23.1061C30.4254 23.2079 30.6635 23.4701 30.8692 23.5995C30.9502 23.6465 31.0316 23.7249 31.0476 23.7678C31.0909 23.8618 30.7553 24.2967 29.2888 26.0355C27.9466 27.6293 27.5569 28.1071 27.5569 28.1739C27.5569 28.2209 27.5894 28.2209 27.7626 28.166C27.8708 28.1306 28.0384 28.0877 28.125 28.0642ZM26.0956 27.6845C26.0956 27.6256 25.0724 25.9143 24.7425 25.4286C24.2173 24.6454 23.4219 23.7524 23.2864 23.7875C23.2487 23.7954 22.9075 23.9598 22.5343 24.1478C21.4302 24.6999 20.8565 25.1661 20.6019 25.7185C20.5534 25.8319 20.5209 25.9296 20.5261 25.9337C20.6184 25.9885 22.058 26.5331 22.6694 26.7405C23.0915 26.8855 23.4219 27.0184 23.4003 27.0344C23.3786 27.0538 23.3894 27.0538 23.4219 27.0419C23.4596 27.0262 23.725 27.0889 24.0173 27.1791C24.5096 27.3279 25.9601 27.7117 26.0575 27.7155C26.0791 27.7196 26.0956 27.7039 26.0956 27.6842V27.6845ZM27.7842 27.2496C28.3306 26.6935 28.7259 26.2392 29.7053 25.0408C30.3496 24.2456 30.5172 24.0106 30.4795 23.9558C30.3656 23.8069 29.895 23.5093 29.6136 23.4153C29.3646 23.3291 29.2399 23.3135 28.8558 23.3135C28.5527 23.3135 28.3414 23.3332 28.2332 23.3724L28.0708 23.431L28.0059 24.1557C27.8925 25.4753 27.6976 26.5368 27.4214 27.3044C27.3456 27.5119 27.2863 27.692 27.2863 27.7077C27.2863 27.7468 27.3348 27.6998 27.7842 27.2496ZM32.7579 27.4414C33.9053 27.0654 34.8903 26.8382 35.7402 26.7599L35.9944 26.7364L36.2706 26.388C39.4206 22.4049 39.6912 17.3997 36.9742 13.2838C36.1408 12.0186 35.2042 10.9966 33.8676 9.88435L33.6836 9.72769L33.6563 9.9821C33.6403 10.1193 33.6026 10.5345 33.5697 10.8985C33.4454 12.3398 33.0501 13.8242 32.4171 15.2457C32.2006 15.7276 32.1032 15.8843 31.378 16.8828C31.0043 17.3997 30.9939 17.4978 31.2862 17.76C31.5078 17.9637 31.6594 18.0655 33.348 19.1308C34.815 20.0591 34.9717 20.2117 34.9717 20.7092C34.9615 20.9069 34.9272 21.1035 34.8691 21.2967C34.6093 22.0602 32.7475 26.247 32.1681 27.3593C32.0764 27.5354 32.0114 27.6804 32.0166 27.6804C32.0274 27.6804 32.3578 27.5745 32.7583 27.4414H32.7579ZM27.0642 27.1829C27.2863 26.5212 27.3945 25.7849 27.4755 24.4884C27.4919 24.2105 27.5188 23.8461 27.5352 23.6816L27.5677 23.3881L27.2646 23.337C27.075 23.3057 26.7992 23.2117 26.5069 23.0747C25.9168 22.7965 25.7925 22.7809 25.2781 22.9416C24.975 23.0315 24.8126 23.0628 24.6126 23.055C24.358 23.0434 24.3364 23.0512 24.1472 23.2117L23.9467 23.3802L24.2337 23.6738C24.3961 23.8383 24.6611 24.1438 24.8291 24.3515C25.1266 24.7353 25.9116 25.961 25.944 26.0982C25.9549 26.1411 25.9765 26.1803 25.9925 26.1922C26.0415 26.2235 26.7017 27.2612 26.7069 27.3201C26.7069 27.3436 26.7342 27.3671 26.7611 27.3671C26.7935 27.3671 26.8044 27.3787 26.7827 27.3906C26.7502 27.4141 26.8533 27.5197 26.9126 27.5238C26.9343 27.5238 26.9992 27.3709 27.0642 27.1829ZM20.5478 24.3709C21.5276 24.1281 22.1013 23.8853 23.0647 23.3057C23.2988 23.1611 23.537 23.0201 23.7791 22.8827C23.9034 22.8122 23.925 22.773 23.9415 22.5302L23.9575 22.2561L23.6328 22.1621C23.4046 22.1008 23.1691 22.055 22.9292 22.0251C22.7235 21.9976 22.5776 21.9662 22.6101 21.9547C22.6369 21.939 22.8642 21.892 23.1188 21.845C23.7358 21.7316 23.8765 21.6727 23.8765 21.5395C23.8765 21.4377 23.8549 21.4261 23.557 21.3829C23.3622 21.3515 23.0755 21.2613 22.7941 21.14C21.5168 20.5839 19.5736 20.0983 19.0488 20.2042C18.5292 20.3057 18.3452 20.713 18.3504 21.7469C18.356 22.5343 18.4318 22.8047 18.9241 23.7719C19.3463 24.5902 19.2705 24.52 19.7307 24.4965C19.9416 24.4887 20.3096 24.4298 20.5478 24.3712V24.3709ZM29.9491 22.8163C30.1275 22.5694 30.1708 22.3306 30.1383 21.7745C30.0842 20.8816 29.8192 20.1804 29.4672 20.0159C29.2455 19.9103 28.7961 19.9297 28.3414 20.0707C28.1306 20.1334 27.6218 20.3449 27.2049 20.5369C26.7883 20.7327 26.3878 20.9167 26.3121 20.9442C26.2363 20.9715 26.1713 20.9991 26.1605 21.0028C26.1549 21.0069 26.1982 21.1281 26.2631 21.2654L26.377 21.5238L26.7126 21.5041C26.913 21.4925 27.1404 21.5082 27.2863 21.5433L27.53 21.5981L27.2053 21.6294C27.0265 21.6451 26.794 21.6843 26.6801 21.7156C26.4528 21.7823 26.4203 21.8566 26.442 22.3109C26.458 22.6555 26.3606 22.6126 27.5028 22.7652C28.1795 22.8554 29.0182 22.9218 29.6136 22.9375C29.8409 22.9416 29.8681 22.9297 29.9491 22.8163ZM25.4136 22.397C25.9168 22.1934 25.8735 21.4925 25.3487 21.3124C25.1266 21.2378 24.791 21.2575 24.5368 21.3631C24.4121 21.4142 24.3688 21.4649 24.3472 21.5708C24.3255 21.7156 24.4879 22.3855 24.5637 22.4362C24.6828 22.5186 25.1699 22.4989 25.4136 22.397ZM17.6684 20.8737C17.7931 20.4545 17.7875 20.3646 17.6416 20.337C17.3102 20.3083 16.9782 20.2836 16.6457 20.2628C16.0612 20.2236 15.6715 20.1766 15.455 20.1218C14.9679 19.9965 14.9246 19.9965 14.903 20.1647C14.8922 20.2822 14.919 20.3292 15.0545 20.431C15.3793 20.666 16.1963 20.9442 17.0298 21.1009C17.5927 21.2105 17.5658 21.2221 17.6684 20.8737ZM26.0575 20.4508C26.4203 20.243 26.7502 20.0629 26.7827 20.055C26.8208 20.0435 26.8533 20.0237 26.8533 20.0043C26.8533 19.9651 26.3714 20.0237 25.5271 20.1609C24.4771 20.337 23.9575 20.3762 23.4869 20.3176C22.74 20.2274 22.6642 20.2628 23.1188 20.4821C23.6168 20.7208 24.1255 20.8227 24.8126 20.8267H25.392L26.0575 20.4508ZM18.2369 19.7887C18.5617 19.55 19.1354 19.4754 20.0879 19.5459C20.3638 19.5657 20.456 19.5616 20.3694 19.5343C19.3411 19.2132 17.0406 17.5172 16.4184 16.6127C16.2396 16.358 16.0612 15.9547 16.0937 15.8843C16.1045 15.8608 16.3427 16.0682 16.6241 16.3464C18.421 18.1282 19.8767 18.9976 21.9008 19.4873C23.0915 19.7731 24.4502 19.7339 25.9821 19.3579C27.1512 19.076 28.645 18.4456 29.1806 18.0148C29.5542 17.7171 30.6852 16.4952 31.0532 15.9939C31.8867 14.8503 32.4548 13.5031 32.7583 11.956C32.8986 11.2237 32.9531 9.6337 32.8665 8.56844C32.7254 6.80982 32.5306 6.28503 31.8057 5.7643C30.9883 5.17685 29.879 4.97319 29.0832 5.26301C28.9424 5.31376 28.8234 5.357 28.8177 5.357C28.764 5.357 28.8177 5.09068 28.8883 4.98103C29.1641 4.55806 29.911 4.35816 30.7666 4.4719L31.0316 4.50699L30.9558 4.40516C30.8151 4.20934 29.4893 3.04226 29.0563 2.72895C28.477 2.31381 28.1146 2.11799 27.4651 1.87925C26.1337 1.38578 24.5044 1.0214 23.0487 0.892316C22.3776 0.829654 20.743 0.864744 20.2395 0.947145C19.3952 1.08814 18.1287 1.5462 16.7596 2.20415C15.2386 2.93667 14.286 3.61405 13.7287 4.35033L13.5283 4.61288L13.6638 4.97695C13.9344 5.67814 13.9128 6.01871 13.5066 7.45994C13.2849 8.24729 13.2525 8.41554 13.2468 8.88175C13.2468 9.37897 13.2577 9.45354 13.4741 10.0802C13.7504 10.8985 13.7881 11.0749 13.7015 11.1883C13.588 11.345 13.1117 11.4703 12.5432 11.4938L12.0401 11.5173L11.9154 11.1533C11.6071 10.2484 11.0278 9.82168 10.1242 9.82168C9.04171 9.82168 8.13765 10.3189 7.76961 11.1141C7.64535 11.3804 7.63452 11.9287 7.74277 12.289C7.85101 12.6415 8.17012 13.2054 8.42471 13.4833C8.89536 14.0044 9.58814 14.3685 10.2108 14.4233C10.7195 14.4703 10.9412 14.4233 11.4283 14.1689C11.818 13.9652 12.1484 13.8556 12.2185 13.9063C12.2783 13.9496 12.2891 14.2196 12.2293 14.298C12.1969 14.345 12.0293 14.4979 11.8561 14.6348C11.4881 14.9246 11.4448 15.0264 11.5366 15.43C11.753 16.3658 12.603 17.9245 13.3282 18.6962C13.7829 19.1856 14.3674 19.4754 15.2875 19.6675C15.8772 19.7928 16.9761 19.9062 17.7338 19.9181C18.0369 19.926 18.0694 19.9181 18.2369 19.7887ZM12.186 9.80978C12.186 9.80194 12.083 9.72769 11.9587 9.64529L11.7258 9.48863L11.9423 9.65719C12.1371 9.80978 12.186 9.84111 12.186 9.80978ZM10.1995 9.08916C10.1096 9.08132 10.0188 9.08132 9.92889 9.08916C9.8423 9.09699 9.90205 9.10483 10.048 9.10483C10.1995 9.10483 10.2645 9.09699 10.1995 9.08916Z" fill="#1E232B"/>
<path d="M34.0787 30.9311L33.5374 30.9113L33.7539 30.833C33.9052 30.7877 34.0666 30.7625 34.2302 30.7587C34.3705 30.7547 34.4844 30.7431 34.4844 30.7274C34.4844 30.6845 34.9606 30.6882 34.9931 30.7315C35.0091 30.7509 35.1395 30.755 35.2745 30.7431C35.4694 30.7274 35.5183 30.7352 35.4854 30.7744C35.4586 30.8098 35.475 30.8136 35.556 30.7979C35.6586 30.7744 36.6493 30.9154 36.6493 30.9545C36.6493 30.978 34.7493 30.9586 34.0782 30.9311H34.0787ZM33.6942 29.9169C33.8132 29.8229 34.3436 29.7013 34.5112 29.7326C34.5818 29.7442 34.6576 29.7405 34.674 29.717C34.7117 29.6737 34.9875 29.6621 35.0364 29.7013C35.0524 29.7129 35.2204 29.7286 35.4101 29.7367C35.5993 29.7442 35.8916 29.7718 36.0539 29.7994L36.3518 29.8501L36.0808 29.8774C35.5668 29.9363 34.5653 29.9911 34.0838 29.9911C33.6132 29.9911 33.6019 29.987 33.6942 29.9169ZM33.1153 29.3921C33.5374 29.0004 34.4194 28.7028 35.3235 28.6401L35.6482 28.6204L35.4317 28.6946C35.3122 28.7341 34.9282 28.8908 34.5761 29.0434C33.9431 29.3175 33.6348 29.4115 33.2179 29.4663L33.0014 29.4936L33.1153 29.3918V29.3921ZM26.3062 25.5734C26.0577 25.4246 26.2144 25.0956 26.5391 25.0956C26.8691 25.0956 27.0314 25.4011 26.7881 25.5656C26.6418 25.6637 26.4686 25.6674 26.3062 25.5734ZM25.8897 24.1949C25.818 24.144 25.7755 24.0754 25.7706 24.0028C25.7706 23.8737 25.9711 23.7249 26.1443 23.7249C26.2958 23.7249 26.5283 23.8894 26.5283 23.999C26.5283 24.1087 26.2958 24.2732 26.1334 24.2732C26.0629 24.2732 25.9546 24.2378 25.8897 24.1949ZM24.2443 17.3255C23.3407 17.1767 22.9454 16.9574 22.2037 16.2054C22.0413 16.045 21.7815 15.81 21.6248 15.6885C21.4624 15.5669 21.3325 15.4497 21.3325 15.4222C21.3325 15.3752 21.5542 15.3047 21.7006 15.3047C21.7599 15.3047 21.8521 15.3908 21.9547 15.5318C22.3825 16.1271 23.2701 16.4837 24.6717 16.6165C25.083 16.656 25.7598 16.6754 26.7232 16.6754H28.1572L27.984 16.8556C27.7892 17.063 27.4752 17.1845 26.8799 17.2826C26.3659 17.3684 24.6717 17.396 24.2443 17.3255ZM26.2577 15.7903C24.699 15.712 23.2649 15.3633 22.6263 14.9014C22.4635 14.7836 22.2903 14.631 22.2366 14.5643L22.1387 14.4431L22.3769 14.5173C23.0969 14.7407 24.3145 14.8698 26.0464 14.9011L27.3293 14.9246L27.3618 15.0656C27.3778 15.1439 27.3943 15.3438 27.3943 15.5121V15.8138L26.9505 15.806C26.7015 15.8019 26.3928 15.7941 26.2577 15.7903ZM27.9463 15.3047L27.9623 14.862L28.4659 14.7877C29.0989 14.6978 29.5969 14.5527 30.5607 14.1846C30.9824 14.0242 31.3452 13.8948 31.3617 13.8948C31.4102 13.8948 31.1123 14.2551 30.8257 14.5449C30.539 14.8425 29.9112 15.2655 29.5375 15.4184C29.1803 15.5672 28.6716 15.6847 28.255 15.7198L27.9303 15.7474L27.9463 15.3047ZM25.0778 14.1886C24.8613 13.9966 24.7423 13.7419 24.7423 13.4756C24.7423 13.276 24.8722 12.9548 24.9588 12.9548C24.9804 12.9548 25.0505 13.1037 25.1155 13.2838C25.2077 13.5266 25.2783 13.64 25.3969 13.7224C25.5597 13.8359 25.5649 13.8359 26.2469 13.8359C26.8747 13.8321 26.9778 13.8243 27.4216 13.7105C27.6922 13.64 28.3092 13.4521 28.8015 13.2916C29.7865 12.9627 29.8571 12.9194 29.922 12.5278C29.9653 12.2577 29.8138 12.0462 29.2453 11.5722C27.9087 10.4562 27.3458 9.87247 26.9345 9.16376C26.6149 8.61171 26.4742 7.92995 26.669 7.87543C26.7829 7.8441 26.8912 7.94968 26.9613 8.15741C27.1942 8.82696 28.6772 10.3424 30.1978 11.4666C30.5607 11.737 30.8746 11.9992 30.8962 12.0462C30.9123 12.0973 30.8746 12.2655 30.804 12.4184C30.7391 12.5751 30.6577 12.7866 30.6256 12.8884C30.5659 13.0723 30.555 13.0802 29.9597 13.3465C28.4334 14.0242 27.4432 14.2707 26.036 14.3137L25.251 14.3372L25.0778 14.1886ZM9.62037 12.7903C9.36058 12.3949 9.31165 11.784 9.51212 11.3688C9.63639 11.1063 9.62037 11.075 9.36058 11.075C9.17656 11.075 9.09516 11.0985 8.94924 11.204C8.77086 11.3256 8.76523 11.3256 8.8029 11.2316C8.8791 11.0358 9.11161 10.7971 9.31728 10.699C9.59309 10.5658 9.88578 10.5423 10.2265 10.6207C10.9951 10.8049 11.5363 11.392 11.5363 12.0384C11.5363 12.2264 11.5203 12.2928 11.4714 12.2812C11.4337 12.2734 11.2709 12.0891 11.1193 11.8739C10.7842 11.4158 10.6864 11.3491 10.3729 11.3491C10.1832 11.3491 10.1131 11.3688 10.0317 11.4472C9.85851 11.6038 9.78273 11.9171 9.78273 12.473C9.77711 12.759 9.77191 12.994 9.76628 12.994C9.76108 12.994 9.69614 12.9 9.62037 12.7903ZM21.6304 10.3465C20.7748 10.1939 20.4501 9.9743 20.6289 9.66099C20.7103 9.52783 20.7753 9.52 21.4408 9.60616C22.1119 9.69232 22.6531 9.68449 22.9398 9.58266C23.0697 9.53974 23.1727 9.48084 23.1727 9.45734C23.1727 9.43008 23.0913 9.31259 22.9943 9.1951C22.5449 8.65056 22.2201 8.04744 22.1608 7.6677C22.1227 7.37382 22.1933 7.36599 22.3609 7.64045C22.9077 8.52931 22.9943 8.63897 23.4381 8.97578C23.8979 9.33201 23.9793 9.45765 23.9088 9.72773C23.8603 9.90005 23.5139 10.1548 23.1727 10.2641C22.9835 10.3268 22.7938 10.3465 22.334 10.3543C22.0093 10.3622 21.6897 10.3584 21.6304 10.3465ZM30.2247 9.93545C29.9922 9.88438 29.7324 9.68856 29.6891 9.52815C29.635 9.30883 29.6458 9.30475 30.6741 9.23426C31.3019 9.19102 31.6159 9.13619 31.6159 9.06977C31.6159 9.04627 31.5184 8.84262 31.3994 8.61171C31.1179 8.06718 31.0205 7.77736 31.0205 7.51105L31.0261 7.2958L31.5345 8.04775C31.8107 8.46289 32.1302 8.90936 32.2385 9.03468C32.3952 9.22267 32.4221 9.28533 32.3788 9.34799C32.2329 9.54381 31.5994 9.81013 31.0365 9.91571C30.6741 9.98621 30.4849 9.98997 30.2251 9.93545H30.2247ZM17.3058 7.03325C17.1162 6.84119 17.2785 6.32047 17.6357 5.93259C18.2748 5.24738 19.3244 4.75767 20.147 4.76174C20.748 4.76582 21.3325 5.14179 21.181 5.4316C21.1377 5.52152 21.1212 5.52152 20.38 5.52936C19.6604 5.53343 19.6114 5.53719 19.2759 5.65468C18.632 5.87807 18.1501 6.23431 17.6955 6.83367C17.5764 6.99033 17.4573 7.11941 17.4357 7.11941C17.4088 7.11941 17.3491 7.08025 17.3058 7.03325Z" fill="#1E232B"/>
</svg>
