<svg width="40" height="40" viewBox="0 0 40 40" fill="none" xmlns="http://www.w3.org/2000/svg">
<path d="M33.7576 5H19.3145C19.3145 8.6 22.2295 11.515 25.8291 11.515H28.4854V14.0856C28.4854 17.6856 31.4004 20.6006 35.0004 20.6006V6.24281C35.0003 5.91322 34.8693 5.59716 34.6363 5.3641C34.4032 5.13105 34.0872 5.00008 33.7576 5Z" fill="#1E232B"/>
<path d="M26.6007 12.2H12.1572C12.1572 15.7997 15.0713 18.7147 18.671 18.7147H21.3285V21.2853C21.3285 24.8853 24.2435 27.8003 27.8435 27.8003V13.4425C27.843 13.1131 27.7119 12.7972 27.4789 12.5643C27.246 12.3313 26.9301 12.2002 26.6007 12.1997V12.2Z" fill="#1E232B"/>
<path d="M19.4434 19.3994H5C5 22.9994 7.91375 25.9144 11.5138 25.9144H14.1712V28.485C14.1712 32.0863 17.0863 35 20.6859 35V20.6435C20.6856 20.3139 20.5546 19.998 20.3217 19.7648C20.0888 19.5317 19.773 19.4004 19.4434 19.3997V19.3994Z" fill="#1E232B"/>
</svg>
