<svg width="33" height="33" viewBox="0 0 33 33" fill="none" xmlns="http://www.w3.org/2000/svg">
<path fill-rule="evenodd" clip-rule="evenodd" d="M4.125 16.5001C4.125 22.6189 8.59375 27.7064 14.4375 28.7376L14.5065 28.6824C14.4835 28.678 14.4605 28.6734 14.4374 28.6688V19.9376H11.3437V16.5001H14.4374V13.7501C14.4374 10.6563 16.4312 8.93758 19.2499 8.93758C20.1437 8.93758 21.1062 9.07508 21.9999 9.21258V12.3751H20.4187C18.9062 12.3751 18.5624 13.1313 18.5624 14.0938V16.5001H21.8624L21.3124 19.9376H18.5624V28.6688C18.5395 28.6734 18.5165 28.678 18.4935 28.6824L18.5625 28.7376C24.4062 27.7064 28.875 22.6189 28.875 16.5001C28.875 9.69387 23.3062 4.12512 16.5 4.12512C9.69375 4.12512 4.125 9.69387 4.125 16.5001Z" fill="#1E232B"/>
</svg>
