<svg width="33" height="33" viewBox="0 0 33 33" fill="none" xmlns="http://www.w3.org/2000/svg">
<path d="M16.5006 4.5C13.2417 4.5 12.8327 4.51425 11.5528 4.5725C10.2753 4.631 9.40335 4.83325 8.64037 5.13C7.85115 5.4365 7.18167 5.8465 6.51469 6.51375C5.84721 7.18075 5.43722 7.85025 5.12973 8.63925C4.83224 9.4025 4.62975 10.2747 4.57225 11.5517C4.515 12.8317 4.5 13.241 4.5 16.5C4.5 19.759 4.5145 20.1667 4.5725 21.4467C4.63125 22.7242 4.83349 23.5962 5.12998 24.3592C5.43672 25.1485 5.84671 25.818 6.51394 26.485C7.18067 27.1525 7.85015 27.5635 8.63887 27.87C9.40235 28.1667 10.2746 28.369 11.5518 28.4275C12.8317 28.4857 13.2405 28.5 16.4991 28.5C19.7583 28.5 20.166 28.4857 21.446 28.4275C22.7234 28.369 23.5964 28.1667 24.3599 27.87C25.1489 27.5635 25.8174 27.1525 26.4841 26.485C27.1516 25.818 27.5616 25.1485 27.869 24.3595C28.164 23.5962 28.3665 22.724 28.4265 21.447C28.484 20.167 28.499 19.759 28.499 16.5C28.499 13.241 28.484 12.832 28.4265 11.552C28.3665 10.2745 28.164 9.4025 27.869 8.6395C27.5616 7.85025 27.1516 7.18075 26.4841 6.51375C25.8166 5.84625 25.1491 5.43625 24.3591 5.13C23.5942 4.83325 22.7217 4.631 21.4442 4.5725C20.1643 4.51425 19.7568 4.5 16.4969 4.5H16.5006ZM15.4242 6.6625C15.7437 6.662 16.1001 6.6625 16.5006 6.6625C19.7045 6.6625 20.0843 6.674 21.3495 6.7315C22.5195 6.785 23.1544 6.9805 23.5774 7.14475C24.1374 7.36225 24.5366 7.62225 24.9564 8.04225C25.3764 8.46225 25.6364 8.86225 25.8544 9.42225C26.0186 9.84475 26.2143 10.4797 26.2676 11.6497C26.3251 12.9147 26.3376 13.2947 26.3376 16.4972C26.3376 19.6997 26.3251 20.0797 26.2676 21.3447C26.2141 22.5147 26.0186 23.1497 25.8544 23.5722C25.6369 24.1322 25.3764 24.531 24.9564 24.9507C24.5364 25.3707 24.1377 25.6307 23.5774 25.8482C23.1549 26.0132 22.5195 26.2082 21.3495 26.2617C20.0845 26.3192 19.7045 26.3317 16.5006 26.3317C13.2965 26.3317 12.9167 26.3192 11.6518 26.2617C10.4818 26.2077 9.84684 26.0122 9.4236 25.848C8.86362 25.6305 8.46363 25.3705 8.04364 24.9505C7.62366 24.5305 7.36366 24.1315 7.14567 23.5712C6.98142 23.1487 6.78568 22.5137 6.73243 21.3437C6.67493 20.0787 6.66343 19.6987 6.66343 16.4942C6.66343 13.2897 6.67493 12.9117 6.73243 11.6467C6.78593 10.4767 6.98142 9.84175 7.14567 9.41875C7.36316 8.85875 7.62366 8.45875 8.04364 8.03875C8.46363 7.61875 8.86362 7.35875 9.4236 7.14075C9.84659 6.97575 10.4818 6.78075 11.6518 6.727C12.7587 6.677 13.1877 6.662 15.4242 6.6595V6.6625ZM22.9059 8.655C22.111 8.655 21.466 9.29925 21.466 10.0945C21.466 10.8895 22.111 11.5345 22.9059 11.5345C23.7009 11.5345 24.3459 10.8895 24.3459 10.0945C24.3459 9.2995 23.7009 8.6545 22.9059 8.6545V8.655ZM16.5006 10.3375C13.0975 10.3375 10.3383 13.0967 10.3383 16.5C10.3383 19.9032 13.0975 22.6612 16.5006 22.6612C19.9038 22.6612 22.6619 19.9032 22.6619 16.5C22.6619 13.0967 19.9035 10.3375 16.5004 10.3375H16.5006ZM16.5006 12.5C18.7096 12.5 20.5005 14.2907 20.5005 16.5C20.5005 18.709 18.7096 20.5 16.5006 20.5C14.2915 20.5 12.5008 18.709 12.5008 16.5C12.5008 14.2907 14.2915 12.5 16.5006 12.5Z" fill="#1E232B"/>
</svg>
