<svg width="50" height="33" viewBox="0 0 50 33" fill="none" xmlns="http://www.w3.org/2000/svg">
<path d="M4.22623 32.0992C3.4154 33.0384 1.9596 33.0384 1.14877 32.0992C0.489143 31.3351 0.490104 30.2028 1.15103 29.4398L13.0255 15.7322C15.7802 12.5522 20.7168 12.5586 23.4661 15.7432C26.2166 18.9292 31.1566 18.9313 33.907 15.7453L40.1919 8.46528C41.5863 6.85016 40.4389 4.34379 38.3051 4.34379H37.9844C36.7849 4.34379 35.8125 3.3714 35.8125 2.1719C35.8125 0.972391 36.7849 0 37.9844 0H42.9062C46.824 0 50 3.17598 50 7.09375V14.5903C50 15.6085 49.1745 16.434 48.1562 16.434C47.138 16.434 46.3125 15.6085 46.3125 14.5903V14.0199C46.3125 11.7828 43.5329 10.749 42.071 12.4423L33.8438 21.9723C31.0937 25.1578 26.1563 25.1578 23.4062 21.9723C20.6562 18.7869 15.7188 18.7869 12.9687 21.9723L4.22623 32.0992Z" fill="#00A993"/>
</svg>
