<svg width="33" height="33" viewBox="0 0 33 33" fill="none" xmlns="http://www.w3.org/2000/svg">
<path fill-rule="evenodd" clip-rule="evenodd" d="M6.47166 4.81262C5.55533 4.81262 4.8125 5.55545 4.8125 6.47179V26.5284C4.8125 27.4447 5.55533 28.1876 6.47167 28.1876H26.5283C27.4447 28.1876 28.1875 27.4447 28.1875 26.5284V6.47179C28.1875 5.55546 27.4447 4.81262 26.5283 4.81262H6.47166ZM10.0591 12.0717C11.179 12.0717 12.0869 11.1639 12.0869 10.044C12.0869 8.92405 11.179 8.01619 10.0591 8.01619C8.9392 8.01619 8.03134 8.92405 8.03134 10.044C8.03134 11.1639 8.9392 12.0717 10.0591 12.0717ZM13.944 13.5703H17.3047V15.1099C17.3047 15.1099 18.2166 13.2859 20.698 13.2859C22.9114 13.2859 24.745 14.3763 24.745 17.7V24.7085H21.2624V18.5492C21.2624 16.5886 20.2157 16.3729 19.418 16.3729C17.7627 16.3729 17.4793 17.8008 17.4793 18.805V24.7085H13.944V13.5703ZM11.8268 13.5703H8.29145V24.7086H11.8268V13.5703Z" fill="#1E232B"/>
</svg>
