<?xml version="1.0" encoding="UTF-8"?>
<svg version="1.1" viewBox="0 0 1600 1600" width="1280" height="1280" xmlns="http://www.w3.org/2000/svg">
<path transform="translate(1056 326)" d="m0 0c0.69-0 1.39-0.01 2.1-0.01 9.53 0.02 9.53 0.02 12.5 2.55 1.46 1.85 2.92 3.7 4.34 5.58 0.7 0.87 1.4 1.74 2.12 2.63 4.13 7.42 5.92 15.9 7.45 24.2 0.61 3.12 1.55 6.13 2.43 9.18 1.49 6.18 2.86 12.4 4.23 18.6 0.22 0.98 0.44 1.96 0.66 2.98 0.44 1.97 0.88 3.94 1.31 5.91 0.3 1.37 0.3 1.37 0.61 2.77 0.18 0.82 0.36 1.63 0.55 2.48 0.56 2.28 0.56 2.28 1.66 4.26 1.13 2.32 1.46 4.29 1.79 6.85 0.19 1.37 0.19 1.37 0.38 2.78 0.18 1.42 0.18 1.42 0.37 2.87 0.25 1.89 0.5 3.78 0.75 5.66 0.11 0.83 0.22 1.67 0.33 2.53 0.33 2.15 0.79 4.21 1.36 6.31h2v2c8.47-4.25 15.8-8.75 23-15 0.97-0.84 0.97-0.84 1.96-1.69 0.59-0.52 1.18-1.03 1.79-1.55 5.81-5.01 12.3-8.72 19.4-11.6 2.02-0.98 2.02-0.98 2.77-2.98 1.63-3.15 4.06-4.55 6.93-6.59 4.11-2.94 7.67-5.94 11.2-9.57 1.02-0.89 2.06-1.77 3.12-2.62 2.73-2.14 2.73-2.14 4.32-3.94 2.02-1.86 4.33-3.07 6.72-4.4 3.58-2.02 6.91-4.08 9.78-7.04 2.19-2.13 4.51-3.53 7.2-4.98 1.24-0.68 2.46-1.4 3.65-2.16 4.01-2.51 6.52-3.27 11.2-2.86 7.26 2.73 14.6 6.18 18.2 13.3 2.08 4.77 3.05 8.44 2.83 13.7 0.33 1.3 0.69 2.59 1.06 3.88 1.08 4.49 0.97 8.8 0.69 13.4-0.04 0.68-0.08 1.37-0.12 2.07-0.29 3.95-1.11 7.05-2.63 10.7-0.2 2.18-0.2 2.18-0.06 4.26 0.03 1.85 0.03 1.85 0.06 3.74l-1 1c-2.37 15.6-3.64 35.6 6 49 1.7 1.65 3.45 3.17 5.31 4.65 1.7 1.37 3.24 2.72 4.69 4.35v2c0.66 0.34 1.32 0.66 2 1 0.68 1.67 1.34 3.33 2 5l2 2c0.68 0.73 1.36 1.45 2.06 2.19 2.91 2.91 6.14 5.35 9.4 7.86 2.77 2.14 5.54 4.28 8.29 6.45 0.88 0.7 1.76 1.39 2.67 2.1 5.9 5.5 8.84 11.8 11.8 19.2 0.68 1.69 1.36 3.39 2.05 5.08 0.29 0.74 0.58 1.48 0.89 2.24 0.84 2.05 0.84 2.05 2.88 3.86 0.81 2.18 1.46 4.39 2.12 6.62 0.78 2.46 0.78 2.46 2.43 4.53 2.17 4.27 2.02 8.44 2.13 13.2 0.04 0.93 0.07 1.86 0.11 2.82 0.08 2.29 0.15 4.58 0.21 6.86h2c0.11 0.58 0.23 1.15 0.35 1.73 0.52 2.57 1.05 5.14 1.59 7.71 0.18 0.9 0.36 1.8 0.55 2.72 0.17 0.86 0.35 1.71 0.53 2.59 0.17 0.79 0.33 1.58 0.5 2.4 0.31 1.86 0.31 1.86 1.48 2.85 1.94 10.6 3.3 26.3-2 36-0.68 2.34-1.34 4.67-2 7-0.94 2.7-1.96 5.35-3 8-0.31 0.81-0.62 1.62-0.94 2.45-2.92 7.47-6 14.3-10.8 20.7-1.37 1.97-2.51 3.98-3.65 6.09-4.23 7.79-9.02 15.2-14.5 22.2-1.24 1.56-1.24 1.56-2.16 3.55h-2c-0.27 0.64-0.54 1.28-0.82 1.94-1.18 2.06-1.18 2.06-4.18 3.06-0.33 0.67-0.66 1.32-1 2-0.33 0.67-0.66 1.32-1 2-0.99 0.33-1.98 0.67-3 1-0.31 0.67-0.62 1.32-0.94 2-1.06 2-1.06 2-3.19 2.76-0.62 0.08-1.23 0.16-1.87 0.24-0.16 0.96-0.16 0.96-0.32 1.94-0.22 0.68-0.45 1.36-0.68 2.06-0.99 0.33-1.98 0.67-3 1-0.33 1-0.66 1.99-1 3-1.94 0.79-3.88 1.57-5.87 2.24-2.39 0.81-2.39 0.81-5.51 2.45-2.62 1.31-2.62 1.31-4.62 1.31-0.1 0.93-0.1 0.93-0.19 1.88-0.81 2.12-0.81 2.12-3.13 3.38-2.68 0.74-2.68 0.74-6.68 0.74v2c-0.58 0.11-1.16 0.22-1.76 0.34-4.88 0.99-8.82 2.32-13.2 4.66-2.33 0.99-4.67 1.91-7.03 2.83-2.22 0.88-4.43 1.78-6.64 2.69-11.2 4.62-11.2 4.62-16.5 5.67-3.65 0.77-5.81 1.78-8.87 3.81h-2v2c-1.76 0.98-3.52 1.96-5.28 2.93-1.88 1.08-1.88 1.08-3.72 3.07-1.99 0.4-3.99 0.74-6 1-0.33 1-0.66 1.99-1 3-2.06 0.69-2.06 0.69-4 1-0.13 0.93-0.13 0.93-0.25 1.88-0.75 2.12-0.75 2.12-2.63 3.38-2.12 0.74-2.12 0.74-5.12 0.74-0.33 1-0.66 1.99-1 3-1.33 0.69-2.66 1.35-4 2-3.46 2.94-5.14 5.9-7 10-0.31 0.65-0.62 1.3-0.94 1.97-5.77 12.4-9.35 25.9-13.1 39-0.33 1-0.66 1.99-1 3-0.27 3.07-0.45 6.13-0.62 9.19-0.38 2.81-0.38 2.81-2.38 5.81-0.15 1.1-0.29 2.19-0.44 3.32-0.58 3.8-1.7 6.35-3.56 9.68-1.29 2.57-1.33 4.77-1.56 7.63-0.09 1-0.17 2.01-0.26 3.04-0.06 0.77-0.12 1.54-0.18 2.33h-3c0.2 0.64 0.41 1.28 0.62 1.94 0.59 4.79-0.46 9.74-2.62 14.1-0.13 1.67-0.23 3.34-0.32 5-0.4 5.06-1.68 8.99-3.71 13.6-1.21 2.98-1.83 5.93-2.44 9.07-0.51 2.22-1.17 4.28-1.93 6.42-1.78 5.23-2.95 10.5-4.1 15.9-1.31 6.13-2.79 12-4.86 18-0.93 2.96-1.33 5.92-1.7 8.99-0.72 5.85-0.72 5.85-2.94 8.06-0.43 2.17-0.43 2.17-0.56 4.57-0.35 4.34-0.35 4.34-1.44 5.43-0.5 2.74-0.9 5.49-1.31 8.24-0.69 2.77-0.69 2.77-2.2 4.7-2.05 2.83-2.16 5.3-2.55 8.75-0.25 2.12-0.55 4.22-0.94 6.31-0.66 0.34-1.32 0.66-2 1-0.43 2.33-0.43 2.33-0.56 5-0.35 4.91-0.35 4.91-1.44 6-0.3 1.65-0.57 3.29-0.82 4.94-0.84 4.88-2.21 9.15-4.18 13.7-2.54 6.07-3.59 11.9-4.44 18.4-0.52 2.79-1.26 4.56-2.56 7.02-0.34 1.52-0.63 3.04-0.88 4.57-0.89 4.82-2.37 9.22-4.12 13.8-2.43 6.42-4.21 13-6 19.6-1 3.04-1 3.04-3 5.04-0.57 1.99-1.06 3.99-1.5 6-1.28 5.78-1.28 5.78-3.5 8-0.68 2.03-1.3 4.07-1.88 6.13-1.59 5.33-3.41 10-6.12 14.9-1 1.82-2 3.63-3 5.44-0.51 0.93-1.02 1.85-1.55 2.8-1.73 3.29-3.2 6.64-4.59 10.1-0.86 1.67-0.86 1.67-2.86 2.67-0.99 1.95-0.99 1.95-1.88 4.26-1.62 3.78-3.36 6.65-6.12 9.74-5.73 6.2-5.73 6.2-8 14 4.77 2.06 8.96 3.2 14.1 3.82 7.64 1.03 14 3.89 20.9 7.18v2c0.6 0.13 1.19 0.25 1.81 0.38 2.19 0.62 2.19 0.62 5.19 2.62v2c1.06 0.33 1.06 0.33 2.14 0.67 3.51 1.64 5.89 3.96 8.54 6.71 0.49 0.48 0.98 0.96 1.48 1.46 3.52 3.58 5.84 6.06 5.84 11.2h2c3.9 7.28 4.41 14.4 4.44 22.4 0.01 1.46 0.01 1.46 0.02 2.95-0.01 0.92-0.02 1.85-0.03 2.8-0.01 0.83-0.02 1.66-0.03 2.52-0.5 2.83-1.44 4.21-3.4 6.29-3.21 1.07-5.5 1.13-8.87 1.13h-3.71c-1.36 0-2.71-0.01-4.07-0.01h-4.29c-3.88 0-7.76-0.01-11.6-0.01-4.05-0.01-8.11-0.01-12.2-0.01-7.69 0-15.4-0.01-23-0.02-8.74-0.01-17.5-0.02-26.2-0.02-18-0.02-36-0.03-54-0.06-1.79-3.31-2.16-5.28-1.94-9.06 0.13-9.98-2.8-17.2-8.36-25.4-1.42-2.09-2.65-4.15-3.83-6.38-1.96-3.27-4.08-5.55-6.87-8.13-1.81-1.68-1.81-1.68-3-3v-2h-2c-0.78-1.36-0.78-1.36-1.56-2.74-2.75-4.31-6.72-5.72-11.4-7.26-1.46-0.29-2.92-0.56-4.38-0.81-8.15-1.6-14.7-6.72-19.6-13.2-0.76-0.64-1.51-1.28-2.29-1.94-1.71-2.06-1.71-2.06-1.77-4.83 0.31-1.57 0.31-1.57 0.62-3.16 0.22-1.15 0.44-2.29 0.66-3.47 0.26-1.19 0.51-2.37 0.78-3.6 0.24-1.16 0.49-2.33 0.74-3.53 0.92-4.14 1.84-8.23 3.19-12.2 1.39-4.18 2.51-8.4 3.63-12.6 0.22-0.82 0.44-1.64 0.67-2.49 0.98-3.69 1.86-7.32 2.36-11.1 0.41-2.97 0.41-2.97 1.41-3.97 0.21-1.46 0.37-2.93 0.5-4.4 0.12-1.33 0.12-1.33 0.25-2.69 0.08-0.94 0.16-1.88 0.25-2.84 0.16-1.85 0.33-3.69 0.5-5.53 0.07-0.82 0.14-1.64 0.22-2.49 0.28-2.05 0.28-2.05 1.28-4.05 0.21-2.74 0.37-5.47 0.5-8.21 0.04-0.82 0.08-1.63 0.12-2.47 0.13-2.6 0.25-5.21 0.38-7.82 0.16-3.42 0.33-6.85 0.5-10.3 0.03-0.79 0.07-1.58 0.1-2.4 0.28-5.59 0.28-5.59 1.4-7.82 0.1-2.96 0.14-5.9 0.12-8.87 0.01-0.82 0.01-1.63 0.01-2.47v-2.4-2.18c-0.14-2.15-0.55-4-1.13-6.08-0.81-2.89-1.16-5.52-1.25-8.52-0.03-0.87-0.06-1.74-0.09-2.63-0.05-1.38-0.05-1.38-0.1-2.78-0.33-8.15-1.07-16-2.56-24.1-0.16-0.98-0.31-1.96-0.47-2.98-0.23-1.43-0.23-1.43-0.47-2.89-0.13-0.82-0.27-1.64-0.4-2.49-0.63-2.81-0.63-2.81-2.12-6-1.55-3.65-2.44-7.08-3.29-11-1.47-6.25-3.41-12.2-5.75-18.2-0.29-0.72-0.57-1.45-0.86-2.2-2.58-6.42-5.22-12.9-9.64-18.3-2.03-2.58-3.58-5.01-4.94-8-1.9-4.08-4.59-7.08-7.67-10.3-1.39-1.67-1.39-1.67-1.39-3.67-0.87-0.17-0.87-0.17-1.76-0.36-5.28-1.5-9.75-5.1-13.8-8.7-4.56-4.03-9.25-7.18-15.4-7.94v-2c-5.32-1.08-10.6-2.15-16-3v-2c-0.61 0.01-1.22 0.02-1.85 0.02-5.93 0.03-11.8-0.17-17.7-0.52-15.8-0.82-31.6-0.84-47.4-0.06-1.2 0.06-1.2 0.06-2.43 0.12-3.59-0.1-3.59-0.1-6.57 1.44-0.5 3.42-0.5 3.42 0 7 3.8 3.06 7.1 3.47 11.9 3.7 0.69 0.03 1.38 0.07 2.08 0.1 10.9 0.46 21.9 0.2 32.9 0.03 21.3-0.31 21.3-0.31 30.2 3.17 0.69 0.25 1.38 0.49 2.09 0.74 1.23 0.44 2.46 0.91 3.68 1.39 1.77 0.69 3.55 1.35 5.33 2 16.7 6.16 16.7 6.16 21.8 14.2 1.08 1.73 1.08 1.73 2.74 3.23 1.37 1.41 1.37 1.41 1.37 3.41h2v2c1.32 0.34 2.64 0.66 4 1v2h2c0.37 1.43 0.37 1.43 0.75 2.88 0.86 3.22 0.86 3.22 3.14 3.96 6.86 3.8 9.18 17.2 11.2 24.3 0.74 2.42 1.57 4.65 2.63 6.95 1.25 2.93 1.25 2.93 1.25 6.93h2c0.19 1.06 0.38 2.12 0.58 3.22 0.27 1.38 0.53 2.77 0.79 4.16 0.19 1.05 0.19 1.05 0.39 2.12 0.74 4.18 0.74 4.18 3.24 7.5 0.28 1.84 0.28 1.84 0.34 4.03 0.05 1.19 0.05 1.19 0.09 2.4 0.02 0.83 0.04 1.66 0.07 2.51 0.04 1.64 0.09 3.27 0.15 4.9 0.02 0.73 0.04 1.46 0.06 2.2 0.19 2.28 0.19 2.28 2.29 4.96 0.25 2.58 0.39 5.05 0.45 7.63 0.02 0.77 0.04 1.54 0.06 2.34 0.07 2.53 0.13 5.06 0.17 7.6 0.03 1.29 0.03 1.29 0.06 2.61 0.29 12.6 0.29 25.2-0.06 37.8-0.01 0.71-0.03 1.42-0.05 2.15-0.18 7.3-0.63 13.9-2.63 20.9-0.18 2.04-0.31 4.09-0.38 6.13-0.39 5.98-1.74 11.2-3.51 16.9-1.67 5.64-2.66 11.4-3.72 17.2-0.23 1.23-0.23 1.23-0.46 2.48-0.13 0.73-0.27 1.46-0.4 2.21-0.53 2.06-0.53 2.06-1.56 4.11-1.19 2.14-1.19 2.14-1.47 5.58-0.5 3.37-0.5 3.37-2.5 5.37-0.57 2.13-1.06 4.28-1.5 6.44-0.8 3.86-1.3 6.26-3.5 9.56-0.02 6.39 2.85 10.7 7.11 15.2 1.72 1.63 3.48 3.16 5.33 4.66 0.84 0.7 1.69 1.4 2.56 2.12v2c0.64 0.23 1.28 0.46 1.94 0.69 2.61 1.12 4.82 2.36 7.24 3.81 3.3 1.89 6.07 2.9 9.82 3.5 7.97 1.35 13.7 5.01 18.8 11.3 1.19 1.75 1.19 1.75 2.22 3.9 0.83 2.02 0.83 2.02 2.97 2.84 0.99 1.69 1.97 3.38 2.91 5.09 1.01 1.79 2.17 3.48 3.34 5.17 1.75 2.74 1.75 2.74 1.75 5.74h2c3.83 11.5 3.83 11.5 3 16-2.62 3.21-5.13 5.53-9 7-2.73-0.05-2.73-0.05-5.63-0.43-3.82-0.65-3.82-0.65-7.37 0.43-1.94 0.11-3.87 0.14-5.81 0.15-1.86 0-1.86 0-3.75 0.01-1.38 0-2.75 0.01-4.13 0.01-1.45 0-2.89 0.01-4.34 0.01l-11.8 0.03c-2.46 0-4.91 0-7.37 0.01-7.67 0.01-15.3 0.02-23 0.02-8.87 0.01-17.7 0.03-26.6 0.05-6.84 0.03-13.7 0.04-20.5 0.04-4.09 0-8.18 0-12.3 0.02-3.85 0.02-7.69 0.02-11.5 0.01-1.42 0-2.83 0.01-4.25 0.02-1.92 0.01-3.85 0-5.77-0.01-1.62 0-1.62 0-3.28 0.01-0.83-0.13-1.67-0.25-2.53-0.38l-2-3c1.13-0.24 2.26-0.48 3.43-0.73 1.48-0.34 2.96-0.68 4.44-1.01 0.75-0.16 1.5-0.32 2.26-0.48 4.33-0.93 4.33-0.93 7.38-3.92 0.16-0.61 0.32-1.22 0.49-1.86h2v-3c0.84-0.32 1.69-0.65 2.56-1 5.41-3.14 11.4-9.03 13-15.2 0.75-5.32 0.57-10.7 0.57-16 0-2.13 0.02-4.27 0.04-6.4 0.01-1.37 0.01-2.74 0.01-4.11 0-1.24 0.01-2.47 0.01-3.75-0.4-5.67-2.32-9.67-5.24-14.4v-2h-2c-0.29-0.59-0.59-1.18-0.89-1.79-2.77-5.34-5.28-8.63-10.1-12.2-0.5-0.51-0.99-1.03-1.5-1.56-6.34-6.07-12.8-7.02-21.5-7.44-8.8 0.24-17.1 2.04-25.3 5.06-3.83 1.35-7.7 2.15-11.7 2.94-1.67 0.35-3.34 0.71-5 1.07-1.12 0.23-1.12 0.23-2.25 0.47-1.77 0.31-1.77 0.31-2.75 1.46-3.07 0.29-6.14 0.45-9.22 0.63-2.92 0.11-2.92 0.11-4.78 2.37-2.76 0.61-5.47 1.13-8.25 1.57-0.75 0.12-1.51 0.25-2.28 0.38-2.16 0.36-4.31 0.71-6.47 1.05-2.97 0.5-5.94 0.99-8.9 1.5-7.08 1.17-14.1 1.81-21.2 2.22-4.7 0.34-9.35 0.93-14 1.55-5.39 0.71-10.8 1.15-16.2 1.49-2.56 0.16-2.56 0.16-4.53 0.74-22.4 5.29-49.4 1.78-71.9-0.21-3.15-0.28-6.3-0.54-9.45-0.79-1.94-0.17-3.88-0.33-5.82-0.5-0.87-0.07-1.73-0.14-2.62-0.21-4.01-0.36-7.87-0.87-11.8-1.75-8.65-1.83-17.6-2.09-26.4-2.71-2.41-0.18-4.81-0.36-7.22-0.54-0.73-0.05-1.47-0.1-2.23-0.15-3.71-0.29-6.43-0.85-9.68-2.64-3.59-0.16-3.59-0.16-7 1-2.87 3.98-3.35 7.18-3 12 0.62 0.07 1.25 0.13 1.9 0.19 0.81 0.08 1.63 0.17 2.47 0.25 0.81 0.08 1.63 0.16 2.46 0.25 2.17 0.31 2.17 0.31 4.17 1.31 1.69 0.2 3.39 0.35 5.09 0.47 1.03 0.08 2.06 0.16 3.13 0.24 2.15 0.15 4.31 0.31 6.46 0.46 5.84 0.44 11.4 1.16 17.2 2.4 3.58 0.72 7.17 0.88 10.8 1.09 2.35 0.34 2.35 0.34 5.35 2.34 2.67 0.29 5.26 0.47 7.94 0.57 1.42 0.06 2.85 0.13 4.27 0.19 1.28 0.05 1.28 0.05 2.59 0.1 2.5 0.11 5 0.25 7.5 0.39 11.7 0.66 23.4 0.91 35.2 0.89 2.85-0.01 5.69 0 8.54 0 9.28 0 18.4-0.2 27.7-0.91 4.74-0.33 9.46-0.34 14.2-0.29 0.88 0.01 1.77 0.01 2.68 0.02 2.13 0.01 4.25 0.03 6.38 0.04v-2c0.7-0.04 1.41-0.08 2.13-0.13 13.5-0.88 26.7-1.88 39.9-4.87 0.84-0.18 1.68-0.37 2.54-0.56 1.42-0.32 2.85-0.65 4.27-0.97 2.63-0.56 5.28-0.98 7.94-1.4 9.46-1.54 18.7-3.9 28-6.25 2.4-0.6 4.79-1.2 7.19-1.79 8.86-2.18 8.86-2.18 17.6-4.71 8.23-2.51 17.2-3.59 25.3-0.06 2.56 2.1 4.84 4.34 7.13 6.74 0.89 0.87 0.89 0.87 1.8 1.74 0.62 0.61 1.24 1.21 1.88 1.83 0.59 0.56 1.17 1.11 1.77 1.69 3.07 3.46 3.8 6.16 3.55 10.7h2c0.51 1.88 1 3.75 1.5 5.63 0.28 1.04 0.55 2.09 0.84 3.16 1.76 8.59-0.94 14.6-5.47 21.8-0.62 0.8-1.23 1.61-1.87 2.43h-2c-0.4 0.96-0.4 0.96-0.82 1.94-1.18 2.06-1.18 2.06-4.18 3.06-0.66 1-1.32 1.99-2 3-1.7 0.76-3.41 1.5-5.14 2.18-2.14 0.88-2.14 0.88-4.92 2.89-3 1.97-5.51 2.95-8.94 3.93-1.05 0.33-2.11 0.66-3.19 1-4.13 1.09-8.24 1.79-12.5 2.44-2.53 0.39-2.53 0.39-4.35 2.56-2.18 0.44-4.37 0.78-6.56 1.07-4.05 0.2-4.05 0.2-7.44 1.93-3.36 0.58-6.72 1.04-10.1 1.5-2.79 0.2-2.79 0.2-3.9 1.5-1.42 0.14-2.84 0.21-4.26 0.25-0.88 0.03-1.75 0.07-2.65 0.1-1.83 0.06-3.67 0.12-5.5 0.17-4.95 0.19-8.91 0.78-13.6 2.48-2.1 0.26-4.21 0.44-6.32 0.57-3.65-0.09-3.65-0.09-6.68 1.43-5.34 0.94-10.7 1.3-16.1 1.57-1.24 0.06-1.24 0.06-2.51 0.13-6.29 0.3-12.5 0.36-18.8 0.24-2.58-0.12-2.58-0.12-4.59 1.06-3.07 0.35-6.17 0.43-9.25 0.57-1.21 0.06-1.21 0.06-2.45 0.13-17.9 0.84-35.9 0.3-53.8-0.07-3.33-0.06-6.66-0.12-9.99-0.18-2.13-0.04-4.26-0.09-6.38-0.13-0.99-0.02-1.99-0.03-3.01-0.05-0.91-0.02-1.82-0.04-2.76-0.06-1.2-0.02-1.2-0.02-2.42-0.05-1.95-0.16-1.95-0.16-3.95-1.16-2.1-0.2-4.2-0.34-6.3-0.46-1.29-0.08-2.58-0.16-3.91-0.24-2.69-0.15-5.39-0.3-8.08-0.46-22-1.34-22-1.34-28.7-4.84-2.59-0.2-2.59-0.2-5.32-0.06-7.49 0.25-14.8-1.26-22.1-2.5-1.24-0.21-1.24-0.21-2.51-0.42-2.01-0.34-4.03-0.68-6.05-1.02v-2c-1.26-0.2-2.52-0.41-3.82-0.62-6.01-1.33-11-4.23-16.2-7.38-1.61-0.95-1.61-0.95-3.25-1.93-9.53-7.15-15.7-17-21.8-27.1-0.74-1.1-0.74-1.1-1.49-2.23-2.24-4.09-3.34-8.41-4.62-12.9-0.89-3.01-1.68-5.54-3.36-8.21-2.41-4.2-3.4-8.75-4.59-13.4-0.4-1.53-0.4-1.53-0.8-3.08-1.93-7.69-3.13-15.3-3.82-23.2 0.01-2.88 0.01-2.88-1.32-4.01-0.72-4.54-1.11-9.12-1.55-13.7-0.07-0.7-0.14-1.41-0.21-2.14-1.6-17.2-1.63-34.3-1.51-51.5 0.02-3.27 0.03-6.55 0.03-9.82l0.03-11.8c0.01-0.74 0.01-1.48 0.01-2.24 0.01-2.07 0.02-4.14 0.04-6.22 0-1.17 0.01-2.35 0.02-3.56 0.12-2.54 0.46-4.57 1.14-7 0.15-2.54 0.25-5.06 0.31-7.6 0.02-0.73 0.05-1.46 0.07-2.21l0.18-6.93c0.04-1.58 0.09-3.15 0.13-4.72 0.11-3.84 0.21-7.69 0.31-11.5h3c-0.01-0.57-0.03-1.14-0.04-1.73-0.21-18.8-0.21-18.8 2.04-23.3 0.18-1.72 0.32-3.45 0.44-5.18 0.36-4.52 1.29-8.46 2.56-12.8 0.32-2.61 0.55-5.23 0.75-7.86 0.25-2.14 0.25-2.14 1.25-4.14 0.32-2.09 0.61-4.2 0.87-6.31 2.19-15.8 2.19-15.8 5.13-23.2 1.51-3.78 2.3-7.7 3.22-11.7 0.78-2.84 0.78-2.84 1.78-4.72 1.48-3.14 1.88-6.47 2.44-9.86 1-5.75 2.36-10.9 4.56-16.3 0.52-1.82 1.02-3.66 1.5-5.5 1.04-3.91 2.22-7.66 3.69-11.4 0.92-2.34 1.77-4.7 2.62-7.07l2.19-6c0.34-0.93 0.34-0.93 0.68-1.89 2.72-7.52 5.51-14.8 9.23-21.9 2.13-4.35 3.42-8.98 4.79-13.6 0.25-0.78 0.49-1.56 0.74-2.36 0.3-1.05 0.3-1.05 0.62-2.11 0.94-2.15 0.94-2.15 2.77-4.36 2.81-3.61 4.54-7.45 6.42-11.6 0.36-0.79 0.72-1.57 1.1-2.39 0.89-1.93 1.77-3.86 2.65-5.8h2c2.16-5.25 3.95-10.6 5.78-16 1.22-2.99 1.22-2.99 3.22-3.99 1.02-1.74 1.02-1.74 1.94-3.81 1.44-3.02 3.05-5.51 5.06-8.19 0.7-2.14 0.7-2.14 1-4h2c1.11-2.07 1.97-3.88 2.5-6.18 0.16-0.6 0.33-1.2 0.5-1.82 0.66-0.32 1.32-0.66 2-1 0.55-1.19 1.11-2.39 1.68-3.62 1.52-3.16 3.06-5.31 5.63-7.69 3.87-3.6 6.41-7.72 9.11-12.2 1.39-2.16 2.74-3.7 4.58-5.46 0.64-0.96 1.28-1.93 1.94-2.93 1.84-2.75 3.7-4.78 6.06-7.07 1.01-1.32 2.01-2.65 3-4 1-1.35 2-2.7 3-4.06 0.49-0.67 0.99-1.34 1.5-2.03 1.4-1.78 2.89-3.32 4.5-4.91 0.51-0.72 1.03-1.44 1.56-2.18 0.47-0.6 0.95-1.2 1.44-1.82h2c0.22-0.55 0.45-1.1 0.68-1.67 1.7-3.01 3.87-5.14 6.32-7.57 0.88-0.9 1.77-1.79 2.68-2.71 2.32-2.05 2.32-2.05 4.32-2.05 0.34-0.83 0.34-0.83 0.68-1.68 1.67-2.94 3.93-4.93 6.32-7.32 0.43-0.79 0.86-1.59 1.31-2.42 2.03-3.1 4.1-4.46 7.25-6.39 0.97-0.6 1.94-1.21 2.94-1.83 2.5-1.36 2.5-1.36 4.5-1.36l1-3c1.32-0.68 2.66-1.34 4-2 1.52-1.64 1.52-1.64 2.87-3.5 2.69-3.29 4.88-4.59 9.13-5.5v-2c1.97-1.4 3.95-2.7 6-4 2.24-1.5 4.46-3.03 6.68-4.56 0.57-0.38 1.14-0.77 1.73-1.17 2.23-1.53 4.35-3.02 6.26-4.95 2.27-2.25 5.42-3.07 8.33-4.32 1-0.99 2-1.99 3-3 1.74-0.99 1.74-0.99 3.66-1.86 1.06-0.49 1.06-0.49 2.14-0.99 0.74-0.34 1.49-0.67 2.26-1.02 1.55-0.72 3.1-1.43 4.66-2.15 0.74-0.34 1.49-0.68 2.25-1.04 4.71-2.18 9.31-4.55 13.9-6.91 2.16-1.09 4.31-2.18 6.47-3.27 0.69-0.36 1.38-0.71 2.1-1.08 5.09-2.57 5.09-2.57 7.66-3.19 2.37-0.61 3.16-1.77 4.87-3.49 6.97-3.62 14.1-5.58 21.8-7.19 3.2-0.8 6.01-1.9 9.02-3.24 5.45-2.41 10.9-3.89 16.7-5.22 2.75-0.63 5.35-1.27 7.95-2.39 3.68-1.37 7.36-1.64 11.2-2.02 5.32-0.34 5.32-0.34 10.3-1.94 1.35-0.2 2.7-0.36 4.06-0.5 0.8-0.08 1.59-0.16 2.41-0.24 1.69-0.17 3.37-0.34 5.05-0.5 0.8-0.09 1.59-0.17 2.42-0.26 0.73-0.07 1.46-0.14 2.21-0.21 1.94-0.2 1.94-0.2 3.85-1.29 2.9-0.2 5.78-0.37 8.68-0.5 4.34-0.19 8.61-0.39 12.9-1.01 3.78-0.54 7.48-0.68 11.3-0.67h2.28c7.12 0.07 14.2 0.56 21.3 1.12 1.09 0.09 2.19 0.18 3.32 0.27 7.84 0.66 7.84 0.66 11.2 1.79 1.87 0.18 3.75 0.32 5.62 0.44 3.6 0.28 7.01 0.61 10.5 1.5 5.5 1.37 11.1 1.81 16.8 2.37 5.92 0.6 5.92 0.6 8.12 1.69v2c0.62-0.01 1.25-0.02 1.9-0.03 1.22-0.01 1.22-0.01 2.47-0.03 0.81-0.01 1.63-0.02 2.46-0.03 2.17 0.09 2.17 0.09 4.17 1.09 1.82 0.1 3.66 0.14 5.49 0.14h3.33c1.15 0 2.3-0.01 3.49-0.01 1.71 0.01 1.71 0.01 3.46 0.01h3.34c1.01 0 2.02 0 3.06-0.01 2.71-0.12 5.18-0.52 7.83-1.13 0.08-0.6 0.16-1.2 0.24-1.83 1.01-2.88 2.25-3.37 4.88-4.85 8.13-5.14 12.5-12.5 15.9-21.3h2c0.08-0.65 0.16-1.31 0.25-2 0.66-2.64 1.43-4.43 2.69-6.81 1.74-3.35 2.69-6.43 3.49-10.1 0.87-3.17 2.3-6.05 3.68-9.02 1-2.32 1.56-4.55 1.89-7.06h2c0.12-0.59 0.24-1.18 0.36-1.79 0.91-4.26 1.93-8.18 3.64-12.2 0.79-2.33 1.55-4.66 2.31-7.01 0.69-1.98 0.69-1.98 1.69-3.99h2c0.12-0.58 0.24-1.16 0.36-1.75 0.17-0.78 0.34-1.57 0.51-2.37 0.16-0.77 0.33-1.53 0.49-2.32 0.73-2.92 1.66-5.71 2.64-8.56 0.33-1.01 0.66-2.03 1.01-3.08 2.97-8.75 6.73-16.8 11-25 1.56-3.01 3.06-6.04 4.57-9.07l10.4-20.9h2c0.27-0.8 0.53-1.6 0.81-2.43 0.59-1.27 0.59-1.27 1.19-2.57 1.48-0.49 1.48-0.49 3-1 0.69-1.99 1.35-3.99 2-6 1.44-1.56 1.44-1.56 3-3 0.62-1.14 0.62-1.14 1.25-2.31 1.63-2.51 2.89-3.73 5.19-5.56 3.68-3.02 5.37-5.91 7.56-10.1 3.47-5.75 3.47-5.75 5.95-6.9 2.57-1.37 3.34-2.79 4.8-5.28 2.65-4.19 5.57-7.06 9.36-10.2 2.68-2.3 4.7-4.84 6.89-7.62 0.86-0.99 1.73-1.98 2.62-3 2.29-2.89 3.86-5.65 5.38-9h2c0.09-0.92 0.09-0.92 0.18-1.87 0.27-0.7 0.54-1.4 0.82-2.13 0.74-0.28 1.48-0.57 2.25-0.87 4.23-1.73 6.7-5.03 8.75-9.13 1.75-1 3.51-2.01 5.28-2.98 1.87-1.11 3.22-2.44 4.72-4.02h2v-2c5.63-3.24 11.7-3.16 18.1-3.12zm-132 160 1 2zm-15 40 1 2zm-519 336 1 2zm-41 170v7h1v-7h-1zm514 5v11h1v-11h-1zm-515 24 1 2zm515 36 1 3zm-515 44 1 3zm1 18 1 2zm10 49 1 2zm242 7v1h10v-1h-10zm-84 3 4 1zm347 5 4 1zm42 24 1 2z" fill="rgb(122, 136, 159)"/>
<path transform="translate(364 435)" d="m0 0c0.82-0.01 1.64-0.01 2.49-0.02 1.35 0.01 1.35 0.01 2.73 0.02 0.96-0 1.92-0.01 2.92-0.01 3.25-0.01 6.5 0 9.75 0.01 2.34-0.01 4.69-0.01 7.03-0.01 5.78-0.01 11.6-0.01 17.4 0 6.92 0 13.8 0 20.8-0.01 13.6-0.01 27.1-0.01 40.7 0 11.9 0 23.7 0.01 35.6 0h2.38 9.58c30-0.01 59.9 0 89.9 0.01 26.6 0.01 53.3 0.01 79.9 0 29.9-0.01 59.8-0.02 89.8-0.01h9.57 2.37c11.9 0.01 23.7 0 35.6 0 13.5-0.01 27-0.01 40.5 0 6.88 0.01 13.8 0.01 20.7 0.01 6.3-0.01 12.6-0.01 18.9 0 2.29 0.01 4.58 0 6.86 0 3.09-0.01 6.18 0 9.28 0.01 1.35-0.01 1.35-0.01 2.73-0.02 1.23 0.01 1.23 0.01 2.48 0.02h2.15c1.86 0.25 1.86 0.25 4.86 2.25h-2c-0.26 0.7-0.53 1.4-0.81 2.13-1.19 2.87-1.19 2.87-2.62 5.62-1.19 2.47-1.99 4.54-2.75 7.13-2.66 8.33-6.98 16.9-11.8 24.1-3.01 0.3-5.82 0.4-8.83 0.37-0.93 0-1.86 0.01-2.82 0.01-3.16 0.01-6.31-0.01-9.47-0.02-2.27 0-4.54 0.01-6.81 0.01-6.26 0.01-12.5-0.01-18.8-0.02-6.05-0.01-12.1-0.01-18.2-0.01-12.4 0.01-24.8 0-37.2-0.02-12.3-0.02-24.6-0.03-36.8-0.03-0.76 0-1.52-0.01-2.31-0.01h-11.6c-27.4 0-54.9-0.02-82.3-0.05-26.7-0.03-53.3-0.05-80-0.06-0.82 0-1.64-0.01-2.49-0.01-8.25 0-16.5 0-24.8-0.01-16.8 0-33.6-0.01-50.4-0.02h-2.35c-51.6-0.03-103-0.08-155-0.13-0.14 0.78-0.28 1.57-0.43 2.38-0.57 2.62-0.57 2.62-1.57 4.62-0.09 2.28-0.13 4.56-0.13 6.85 0 0.71 0 1.43-0.01 2.16v7.27c0 1.75-0.01 3.49-0.01 5.24-0.01 4.81-0.01 9.62-0.02 14.4 0 5.18-0.01 10.4-0.02 15.6-0.01 9-0.03 18-0.04 27-0.01 13-0.03 26-0.05 39.1-0.04 21.1-0.08 42.3-0.11 63.4v3.84c-0.03 18-0.05 35.9-0.08 53.8v3.82c0 1.27-0.01 2.53-0.01 3.83-0.02 21-0.06 42.1-0.1 63.1-0.02 13-0.04 26-0.05 38.9-0.01 8.91-0.02 17.8-0.04 26.7-0.02 5.14-0.02 10.3-0.02 15.4 0 4.71-0.01 9.42-0.03 14.1v5.09c0.02 9.98-0.54 19.5-2.28 29.3h-2c-0.03 0.91-0.07 1.81-0.11 2.75-0.39 7.29-1.23 13.5-3.89 20.2-1.73 5.6-2.91 11.2-4 17-0.99 0.33-1.98 0.66-3 1 0.03 0.74 0.05 1.48 0.07 2.24 0.29 16 0.29 16-3.07 22.8-0.27 2.95-0.44 5.9-0.62 8.86-0.38 3.14-0.38 3.14-1.38 5.87-1.66 5.44-1.43 11-1.56 16.7-0.05 1.36-0.05 1.36-0.09 2.74-0.02 0.82-0.04 1.63-0.06 2.47-0.29 2.4-0.29 2.4-1.27 4.81-1.2 3.06-1.41 5.65-1.61 8.93-0.08 1.27-0.16 2.55-0.24 3.86-0.08 1.39-0.15 2.78-0.23 4.18-0.04 0.7-0.08 1.41-0.12 2.14-1.07 18.5-1.45 37-1.82 55.5-3 0-3 0-4.5-1.19-3.29-3.98-4.91-7.72-6-12.8-0.7-3.25-1.31-5.76-3.02-8.62-1.97-4.6-1.89-8.53-1.86-13.5 0-1.01-0.01-2.03-0.01-3.07-0.01-3.41 0-6.82 0.01-10.2-0.01-2.46-0.01-4.92-0.02-7.38-0.01-5.37-0.01-10.7-0.01-16.1 0.01-7.97 0-16-0.01-23.9-0.02-14.2-0.02-28.5-0.01-42.7 0-12.5 0-24.9-0.01-37.4v-5.01-7.56c-0.01-23.4-0.02-46.9-0.01-70.3v-2.67c0-7.18 0.01-14.4 0.01-21.5 0.01-28 0-56-0.02-83.9-0.03-31.4-0.04-62.8-0.03-94.3v-10-2.51c0-12.4-0.01-24.9-0.02-37.4-0.01-14.2-0.02-28.3 0-42.5 0.01-7.93 0.01-15.8-0.01-23.8-0.01-5.92 0-11.8 0.02-17.8 0-2.39 0-4.79-0.01-7.18-0.07-15.6 1.01-27.7 8.51-41.7l1-3c1.93-1.79 1.93-1.79 4.32-3.62 0.78-0.62 1.56-1.23 2.36-1.86 2.32-1.52 2.32-1.52 4.56-2.04 0.58-0.16 1.16-0.32 1.76-0.48l1-3c3.46-2.42 7.16-3.99 11.1-5.56 4-1.59 4-1.59 7.85-3.5 2.27-1.02 3.74-1.19 6.22-1.19zm-41.1 659 1 2z" fill="rgb(122, 136, 159)"/>
<path transform="translate(1323,638)" d="m0 0 3 2c0.3 2.46 0.4 4.68 0.38 7.15 0 0.75 0.01 1.49 0.01 2.26 0.02 2.54 0.01 5.07 0 7.61 0 1.82 0.01 3.64 0.01 5.47 0.02 5.03 0.01 10.1 0.01 15.1-0.01 5.43 0 10.8 0.01 16.3 0.02 10.6 0.02 21.3 0.02 31.9-0.01 8.64 0 17.3 0 25.9v3.72c0 2.5 0.01 5 0.01 7.49 0.01 22.8 0.01 45.5 0 68.3-0.02 20.8-0.01 41.6 0.02 62.3 0.02 23.3 0.04 46.7 0.03 70-0.01 12.4 0 24.7 0.01 37.1 0.02 10.5 0.02 21 0 31.6-0.01 5.36-0.01 10.7 0.01 16.1 0.01 4.92 0.01 9.84-0.01 14.8-0.01 1.77 0 3.55 0.01 5.32 0.08 14.5-1.65 25.4-11.5 36.7-1.05 1.39-1.05 1.39-2.12 2.81-3.88 4.53-8.49 7.19-13.7 9.94-2.2 1.16-2.2 1.16-3.89 2.78-8.24 5.3-20 3.78-29.4 3.79-1.83 0.01-3.66 0.02-5.5 0.03-4.96 0.03-9.91 0.04-14.9 0.05-5.19 0.02-10.4 0.05-15.6 0.07-9.82 0.05-19.6 0.09-29.4 0.12-11.2 0.04-22.4 0.09-33.5 0.14-23 0.1-46 0.19-69 0.27-0.07 0.81-0.13 1.63-0.2 2.47-0.13 1.61-0.13 1.61-0.27 3.25-0.09 1.06-0.17 2.13-0.26 3.22-0.55 6.21-1.44 12.3-2.77 18.4-1.18 5.53-1.84 10.9-2.16 16.6-0.11 0.71-0.22 1.42-0.34 2.15l-2 1v26c2.62 0.06 5.25 0.12 7.95 0.18 2.55 0.07 5.09 0.13 7.64 0.19 1.77 0.05 3.53 0.09 5.3 0.13 2.54 0.06 5.08 0.12 7.63 0.18 0.78 0.02 1.57 0.04 2.39 0.05 3.52 0.1 6.69 0.37 10.1 1.27 1.58 0.16 3.16 0.29 4.75 0.39 9.4 0.69 18.3 1.37 27.2 4.54 3.42 1.21 6.88 2.13 10.4 3.07 5.12 1.45 9.18 3.07 13.6 6 1.18 0.68 1.18 0.68 2.38 1.38 3.17 1.96 6.25 4.06 9.35 6.14 1.97 1.28 3.95 2.43 6.02 3.54 7.18 4.28 11.7 10.1 14.2 17.9 0.68 1.24 1.39 2.47 2.12 3.69 1.88 3.31 1.88 3.31 1.88 6.31-2.33 0.04-4.67 0.04-7 0l-1-1c-2.9-0.13-5.52-0.1-8.37 0.5-2.73 0.52-5.2 0.62-7.98 0.62h-3.2c-1.16 0-2.31 0-3.49-0.01h-3.7c-3.34 0-6.67 0-10-0.01-3.49 0-6.98-0.01-10.5-0.01-6.6 0-13.2-0.01-19.8-0.02-7.52-0.01-15-0.01-22.6-0.02-15.5-0.01-30.9-0.03-46.4-0.05v-2h-2c-0.21-1.26-0.41-2.52-0.62-3.81-1.49-6.75-4.87-12.9-9.07-18.4-1.31-1.8-1.31-1.8-1.31-3.8-0.89-0.33-0.89-0.33-1.8-0.68-2.87-1.72-3.8-3.61-5.45-6.51-5.81-9.42-12.6-13.8-22.8-17.8v-2h-3l-1-2c-2.13-0.47-2.13-0.47-4.56-0.62-0.83-0.08-1.66-0.15-2.51-0.23-0.63-0.05-1.27-0.1-1.93-0.15-0.5-1.49-0.5-1.49-1-3 1.21-1.68 2.42-3.35 3.67-4.99 1.8-2.72 2.58-5.49 3.51-8.59 3.87-11.4 3.87-11.4 7.82-13.4 0.97-1.62 0.97-1.62 1.84-3.61 0.34-0.73 0.68-1.47 1.03-2.23 0.53-1.16 0.53-1.16 1.07-2.35 0.69-1.51 1.39-3.03 2.09-4.54 0.33-0.73 0.67-1.46 1.01-2.21 0.84-1.8 1.73-3.57 2.64-5.34 1.16-2.4 1.93-4.5 2.51-7.1 0.27-1.19 0.53-2.39 0.81-3.62h2c0.12-0.59 0.24-1.18 0.37-1.79 0.16-0.79 0.33-1.58 0.51-2.4 0.16-0.77 0.32-1.55 0.49-2.35 0.63-2.46 0.63-2.46 1.58-4.67 1.78-4.73 2.52-9.71 3.46-14.7 1.01-5.06 2.38-9.45 4.59-14.1h2c-0.04-1.28-0.08-2.56-0.12-3.88-0.08-2.17-0.08-2.17 0.12-4.12 2.59-2.59 4.35-2.24 7.89-2.26 0.83 0.01 1.66 0.01 2.51 0.02 0.88 0 1.76 0 2.67-0.01 2.96 0 5.93 0.01 8.89 0.02h6.36c5.77 0 11.5 0.01 17.3 0.03 6.02 0.01 12 0.01 18.1 0.01 11.4 0.01 22.8 0.03 34.2 0.05 13 0.02 26 0.03 39 0.04 26.7 0.02 53.4 0.06 80.2 0.1 0.14-0.78 0.29-1.57 0.44-2.38 0.56-2.62 0.56-2.62 1.56-4.62 0.09-1.95 0.12-3.91 0.12-5.87v-3.81c0-1.41-0.01-2.82-0.01-4.23v-4.45c-0.01-4.1-0.01-8.2-0.02-12.3-0.01-4.42-0.01-8.84-0.02-13.2 0-7.66-0.01-15.3-0.03-23l-0.03-33.2c-0.01-18-0.03-36-0.04-53.9-0.01-1.07-0.01-2.15-0.01-3.26-0.01-15.3-0.03-30.6-0.05-45.8 0-1.08 0-2.15-0.01-3.26v-3.26c-0.02-17.9-0.04-35.8-0.05-53.7 0-11-0.02-22.1-0.04-33.2-0.01-7.57-0.02-15.1-0.02-22.7 0-4.37 0-8.74-0.01-13.1-0.02-4-0.02-8-0.01-12 0-1.45-0.01-2.9-0.01-4.35-0.01-1.96-0.01-3.93 0-5.9 0-1.09-0.01-2.19-0.01-3.31 0.63-7.72 4.71-14.7 10.3-20 3.24-3.44 4.96-7.8 6.94-12.1h2v-4h4c0.37-1.26 0.74-2.52 1.12-3.81 1.91-5.79 4.84-10.9 7.88-16.2h2c-0.06-0.64-0.12-1.28-0.19-1.94 0.17-2.8 0.63-4.58 1.57-7.18 1.84-5.19 2.76-10.4 3.62-15.9zm-38 78v6h1v-6h-1zm0 129 1 2z" fill="rgb(122, 136, 159)"/>
<path transform="translate(1258 435)" d="m0 0c0.89-0.01 1.78-0.02 2.69-0.02 1.89-0.02 3.77-0.03 5.66-0.04 2.86-0.01 5.72-0.06 8.59-0.1 1.83-0.01 3.66-0.02 5.5-0.03 0.85-0.02 1.7-0.03 2.57-0.05 5.96 0.02 10 1.42 15.1 4.48 0.82 0.45 1.65 0.91 2.5 1.37 3.64 2.37 7.06 4.98 10.5 7.63 1.03 0.74 2.06 1.48 3.12 2.25 6.92 6.61 11.9 16.2 12.2 25.8 0.01 1.92 0 3.84-0.02 5.76v3.2c0 3.46-0.03 6.92-0.05 10.4-0.01 2.41-0.01 4.82-0.01 7.23-0.01 6.33-0.04 12.7-0.08 19-0.03 6.46-0.04 12.9-0.06 19.4-0.03 12.7-0.08 25.3-0.14 38h-2c-2.11-5.47-3.25-10.4-3.88-16.2-1.34-11-5.75-20.3-10.8-30.1-2.07-4.06-3.78-8.25-5.49-12.5-2.76-6.79-2.76-6.79-6.17-13.3-1.68-2.87-1.68-2.87-1.68-4.87h-2c-1.38-1.47-1.38-1.47-3-3.5-3.47-4.09-7.28-7.28-11.5-10.6-3.02-2.37-5.88-4.88-8.74-7.43-1.47-1.28-3.01-2.47-4.57-3.65-2.4-2.06-3.58-4.17-5.18-6.87-0.99-0.33-1.98-0.66-3-1-1.69-1.44-1.69-1.44-3-3v-2h-2c-4.94-5.49-7.15-10.6-7-18-0.3-2.34-0.63-4.67-1-7h2v-3c3.36-1.69 7.17-1.21 10.9-1.24zm-11.9 5.24 1 4zm77 132 1 2z" fill="rgb(122, 136, 159)"/>
<path transform="translate(593,1285)" d="m0 0h14v1h-14v-1z" fill="#0D0D0D"/>
<path transform="translate(1209,1252)" d="m0 0h6v1h-6v-1z" fill="#0D0D0D"/>
<path transform="translate(1245,446)" d="m0 0h1v6h-1v-6z" fill="#D7DAD9"/>
<path transform="translate(880,1277)" d="m0 0 4 1z" fill="#0D0D0D"/>
<path transform="translate(349,946)" d="m0 0 1 4z" fill="#0D0D0D"/>
<path transform="translate(494,1285)" d="m0 0c3 1 3 1 3 1z" fill="#0D0D0D"/>
<path transform="translate(1298,688)" d="m0 0c0.99 0.5 0.99 0.5 2 1-0.99 0.5-0.99 0.5-2 1v-2z" fill="#D7DAD9"/>
<path transform="translate(702,1194)" d="m0 0 2 1z" fill="#D7DAD9"/>
<path transform="translate(696,582)" d="m0 0 2 1z" fill="#D7DAD9"/>
<path transform="translate(805,581)" d="m0 0 2 1z" fill="#D7DAD9"/>
</svg>
