<svg width="40" height="40" viewBox="0 0 40 40" fill="none" xmlns="http://www.w3.org/2000/svg">
<g style="mix-blend-mode:color-dodge">
<path fill-rule="evenodd" clip-rule="evenodd" d="M4.50556 4.5049C3.33398 5.67647 3.33398 7.56209 3.33398 11.3333V28.6667C3.33398 32.4379 3.33398 34.3235 4.50556 35.4951C5.67713 36.6667 7.56275 36.6667 11.334 36.6667H28.6673C32.4386 36.6667 34.3242 36.6667 35.4957 35.4951C36.6673 34.3235 36.6673 32.4379 36.6673 28.6667V11.3333C36.6673 7.96692 36.6673 6.10303 35.834 4.90833V28.3333C35.0045 28.3333 34.5898 28.3333 34.1968 28.2537C33.6912 28.1513 33.2101 27.9521 32.7802 27.6669C32.446 27.4453 32.1527 27.1521 31.5662 26.5656L29.4957 24.4951C28.1624 23.1618 27.4957 22.4951 26.6673 22.4951C25.8389 22.4951 25.1722 23.1618 23.8389 24.4951L22.0895 26.2445C21.1431 27.1909 20.6699 27.6641 20.1489 27.5638C19.6278 27.4634 19.3642 26.8483 18.837 25.6181L17.328 22.0971C16.2735 19.6367 15.7463 18.4065 14.7042 18.2058C13.6622 18.0051 12.7158 18.9515 10.823 20.8443L5.83398 25.8333V3.71881C5.29953 3.8917 4.86832 4.14214 4.50556 4.5049Z" fill="#ffffff"/>
<path d="M4.33398 11.3333C4.33398 9.41943 4.33611 8.08461 4.47151 7.07747C4.60305 6.09911 4.84365 5.58101 5.21266 5.21199C5.58168 4.84298 6.09978 4.60238 7.07814 4.47084C8.08528 4.33544 9.4201 4.33331 11.334 4.33331H28.6673C30.5812 4.33331 31.916 4.33544 32.9232 4.47084C33.9015 4.60238 34.4196 4.84298 34.7886 5.21199L35.4957 4.50489L34.7886 5.21199C35.1577 5.58101 35.3983 6.09911 35.5298 7.07747C35.6652 8.08461 35.6673 9.41943 35.6673 11.3333V28.6666C35.6673 30.5805 35.6652 31.9153 35.5298 32.9225C35.3983 33.9009 35.1577 34.4189 34.7886 34.788C34.4196 35.157 33.9015 35.3976 32.9232 35.5291C31.916 35.6645 30.5812 35.6666 28.6673 35.6666H11.334C9.4201 35.6666 8.08528 35.6645 7.07814 35.5291C6.09978 35.3976 5.58168 35.157 5.21266 34.788L4.51429 35.4863L5.21266 34.788C4.84365 34.4189 4.60305 33.9009 4.47151 32.9225C4.33611 31.9153 4.33398 30.5805 4.33398 28.6666V11.3333Z" stroke="#ffffff" stroke-width="2"/>
<circle cx="24.9993" cy="15" r="3.33333" fill="#ffffff"/>
</g>
</svg>
