<svg width="33" height="33" viewBox="0 0 33 33" fill="none" xmlns="http://www.w3.org/2000/svg">
<path fill-rule="evenodd" clip-rule="evenodd" d="M27.186 11.1219C27.1954 11.3623 27.1985 11.6027 27.1985 11.8432C27.1985 19.1337 22.0699 27.5502 12.6916 27.5502C9.81079 27.5502 7.13201 26.632 4.875 25.069C5.27397 25.1127 5.67916 25.1456 6.09056 25.1456C8.47918 25.1456 10.6792 24.26 12.4243 22.7735C10.1932 22.7407 8.30923 21.1339 7.65949 18.9479C7.97141 19.0135 8.29263 19.0464 8.62113 19.0464C9.08435 19.0464 9.53409 18.9808 9.96518 18.8497C7.63045 18.3469 5.8719 16.1172 5.8719 13.4392C5.8719 13.4064 5.8719 13.3954 5.8719 13.3736C6.55999 13.778 7.34755 14.0293 8.18383 14.0621C6.81387 13.0674 5.91333 11.3732 5.91333 9.46044C5.91333 8.45485 6.16411 7.50387 6.60556 6.68409C9.11957 10.0288 12.8782 12.2258 17.1155 12.4553C17.0285 12.0509 16.9839 11.6247 16.9839 11.1985C16.9839 8.1489 19.2668 5.67859 22.0834 5.67859C23.5497 5.67859 24.8741 6.34543 25.8036 7.41661C26.9674 7.17614 28.0575 6.7171 29.0441 6.08314C28.6617 7.37292 27.8544 8.45479 26.7995 9.13247C27.8316 9.00131 28.8161 8.70642 29.7291 8.2692C29.0441 9.37317 28.1819 10.3458 27.186 11.1219Z" fill="#1E232B"/>
</svg>
