<svg width="40" height="40" viewBox="0 0 40 40" fill="none" xmlns="http://www.w3.org/2000/svg">
<path fill-rule="evenodd" clip-rule="evenodd" d="M35.5699 32.6859C35.0089 32.224 34.4358 31.7731 33.9111 31.2718C33.3267 30.714 32.9596 30.0393 33.0396 29.1849C33.0855 28.6934 32.9721 28.2706 32.3792 28.1062C32.5186 27.7456 32.6492 27.5037 32.7021 27.2459C32.7608 26.9584 32.7577 26.6562 32.7658 26.3602C32.8483 23.2477 31.7239 20.5193 30.0586 17.9743C29.2917 16.8031 28.4908 15.6527 27.6733 14.5162C26.3946 12.7387 25.9361 10.7418 25.913 8.58462C25.8999 7.58882 25.7867 6.59685 25.5752 5.62368C25.1649 3.73618 24.1536 2.26025 22.3196 1.46868C20.9142 0.861808 19.4596 0.741496 17.9755 1.12993C15.8189 1.694 14.5149 3.29681 14.5392 5.53243C14.5624 7.684 14.6696 9.83837 14.8274 11.9849C14.9174 13.2015 14.7299 14.2512 13.9227 15.2162C13.1464 16.144 12.4521 17.1449 11.7796 18.1527C11.3955 18.729 11.0555 19.3568 10.818 20.0062C10.1711 21.7759 9.57643 23.5602 8.54424 25.1624C8.16174 25.7562 8.1183 26.4206 8.38987 27.0996C8.46018 27.2756 8.5033 27.5462 8.41768 27.6877C7.68205 28.9087 6.85174 29.9831 5.27205 30.2174C4.02955 30.4021 3.9683 30.6281 4.00612 31.909C4.03737 32.9518 4.02518 34.0043 3.91862 35.0406C3.80518 36.1515 3.92112 36.4534 4.99424 36.7196C7.47049 37.3346 9.96705 37.8593 12.3355 38.8615C13.3439 39.2881 14.3558 39.1399 15.168 38.3106C16.0158 37.4446 17.0871 37.1059 18.2442 37.1046C20.2083 37.1031 22.173 37.1977 24.138 37.2199C24.6699 37.2262 24.9752 37.424 25.1892 37.9071C25.4517 38.4987 25.8955 38.9334 26.5783 39.009C27.8886 39.1534 29.0824 38.959 30.0752 37.9593C31.2996 36.7256 32.7114 35.7512 34.3299 35.0759C34.793 34.8824 35.2292 34.5784 35.6121 34.2484C36.3092 33.6477 36.2724 33.2652 35.5699 32.6859ZM19.5083 7.53743C19.7452 6.72462 20.3011 6.19712 21.1467 6.03712C21.858 5.90275 22.4602 6.25212 22.9089 7.0515C23.3921 7.91337 23.5508 8.81399 23.1383 9.75712C22.7999 10.5302 22.6411 10.6031 21.8499 10.3409C21.7017 10.2918 21.5571 10.2337 21.2946 10.1371C21.5158 9.9515 21.6552 9.81368 21.8146 9.70525C22.1689 9.46399 22.2683 9.12462 22.2352 8.7215C22.1917 8.19212 21.7755 7.72337 21.3486 7.72931C20.9658 7.73462 20.6417 8.094 20.5986 8.64024C20.5717 8.98056 20.6283 9.32743 20.6527 9.76181C19.5758 9.44212 19.1805 8.66025 19.5083 7.53743ZM15.5239 6.834C15.9221 6.2315 16.523 6.11087 17.118 6.514C17.7521 6.94399 18.2264 8.1565 17.9814 8.88149C17.8924 9.14524 17.6292 9.35025 17.4452 9.58181L17.2564 9.46493C17.1846 9.07337 17.1702 8.65712 17.0199 8.29837C16.9249 8.07087 16.6271 7.92837 16.4202 7.74775C16.2258 7.97868 15.8911 8.19868 15.8711 8.44399C15.8436 8.78274 16.0202 9.1565 16.1739 9.48493C16.2711 9.69149 16.4867 9.84275 16.7092 10.0837L16.1086 10.5556C15.1655 9.71181 14.8852 7.79931 15.5239 6.834ZM27.2939 26.8984C27.2305 27.7121 27.1377 27.7462 26.3196 27.8665C25.7386 27.9515 25.5824 28.1027 25.553 28.7927C25.521 29.6 25.5197 30.4082 25.5492 31.2156C25.5683 31.7687 25.3814 32.2024 25.0008 32.5884C22.8871 34.7309 20.3617 35.7462 17.3408 35.3777C16.0377 35.2187 15.1858 34.4256 14.498 33.3031C14.8042 33.1896 15.0308 33.1134 15.2517 33.0237C16.2274 32.6268 16.4099 31.7877 15.6308 31.0621C15.0421 30.5131 14.3852 30.0362 13.7536 29.5334C13.143 29.0474 12.5242 28.5715 11.9127 28.0868C11.3914 27.6734 11.1924 27.1406 11.1799 26.4656C11.1505 24.8462 11.4836 23.3312 12.1605 21.8571C12.7642 20.5418 13.2321 19.1643 13.7977 17.8306C14.0899 17.1424 14.3933 16.4384 14.8221 15.8343C15.2342 15.2549 15.4889 14.6877 15.4433 13.9781C15.4171 13.5793 15.4383 13.1774 15.4383 12.7771L15.6592 12.6671C16.0158 12.9749 16.3786 13.2762 16.7289 13.5918C17.993 14.7312 19.1952 14.7834 20.5786 13.8012C21.1686 13.3821 21.8067 13.0293 22.4308 12.6599C22.5861 12.5681 22.7721 12.5277 23.0352 12.4293C23.7074 14.0124 24.3671 15.5646 25.0274 17.1168C25.3624 17.9056 25.6311 18.7315 26.0474 19.4752C26.8821 20.9674 27.3261 22.5418 27.3192 24.2477C27.3155 25.1321 27.3621 26.0196 27.2939 26.8984Z" fill="#1E232B"/>
</svg>
