<svg width="40" height="40" viewBox="0 0 40 40" fill="none" xmlns="http://www.w3.org/2000/svg">
<path fill-rule="evenodd" clip-rule="evenodd" d="M0.09375 20.7812V17.7812C0.15625 17.75 0.15625 17.6875 0.15625 17.625C1.09375 13.5312 3.65625 11.0625 7.71875 10.0937C8.0625 10 8.4375 10.0312 8.78125 9.90625H10.7812C10.8125 9.96875 10.9062 9.9375 10.9688 9.9375C12.9688 10.1562 14.7813 10.875 16.375 12.125C17.75 13.1562 18.8125 14.4687 19.7812 15.875C19.9062 16.0625 19.9688 16.0625 20.0938 15.875C20.6562 15.0625 21.25 14.2812 21.9375 13.5625C23.5937 11.7813 25.5937 10.5312 28.0312 10.0937C28.375 10 28.7812 10.0312 29.125 9.90625H31.0625C31.0938 9.96875 31.1562 9.9375 31.2188 9.9375C31.8125 10 32.375 10.125 32.9375 10.2813C37.125 11.5 40.0938 15.3438 39.8438 19.6875C39.6562 23.3438 37.8125 25.9688 34.5938 27.625C33 28.5 31.25 28.7188 29.4375 28.6875C27.0625 28.6562 25 27.8438 23.2188 26.2812C21.9688 25.1875 21 23.875 20.0938 22.5C19.9688 22.3125 19.9062 22.3437 19.7812 22.5312C19.2188 23.375 18.625 24.2187 17.9375 25.0312C16.7188 26.4062 15.3125 27.5312 13.5625 28.125C11.4063 28.875 9.21875 28.9062 7.03125 28.3125C3.875 27.4062 1.71875 25.4062 0.53125 22.3438C0.34375 21.8438 0.25 21.2812 0.09375 20.7812ZM10.0312 25.375C11.8125 25.4375 13.3438 24.8437 14.6563 23.625C16 22.375 16.9688 20.8125 17.9375 19.2812C17.9688 19.1875 17.9688 19.125 17.9062 19.0312C17.0938 17.75 16.25 16.4687 15.125 15.4062C12.9688 13.3437 10.4375 12.6563 7.59375 13.5625C5.25 14.3438 3.75 16 3.40625 18.5C3.0625 20.8438 3.96875 22.7187 5.84375 24.125C7.09375 25.0312 8.5 25.4062 10.0312 25.375ZM29.8438 25.375C30.5312 25.375 31.2188 25.3438 31.875 25.1562C34.3438 24.4062 35.9688 22.875 36.4375 20.3125C36.9062 17.7812 35.9375 15.75 33.8125 14.3125C31.4687 12.6875 28.0625 12.8437 25.6875 14.625C24.0937 15.8125 23.0312 17.4062 21.9688 19.0625C21.9062 19.1562 21.9375 19.2187 21.9688 19.3125C22.8125 20.6562 23.6562 22 24.75 23.1562C26.125 24.625 27.7812 25.4687 29.8438 25.375Z" fill="#1E232B"/>
<path fill-rule="evenodd" clip-rule="evenodd" d="M10 18.2812C11 18.2812 12.0313 18.3124 13.0313 18.2812C13.2813 18.2812 13.3125 18.3437 13.3125 18.5937C13.2812 18.8749 13.2812 19.1562 13.3125 19.4374C13.3438 19.6874 13.2812 19.7499 13 19.7499H9C8.3125 19.7499 7.625 19.7187 6.9375 19.7499C6.71875 19.7499 6.65625 19.6874 6.65625 19.4374C6.6875 19.1562 6.6875 18.8749 6.65625 18.5624C6.65625 18.3437 6.71875 18.2812 6.9375 18.2812C7.9375 18.3124 8.96875 18.2812 10 18.2812ZM29.6875 16.2812C29.9375 16.2812 30.1875 16.3124 30.4062 16.2812C30.5625 16.2812 30.625 16.3437 30.625 16.4999C30.5937 16.9374 30.625 17.3749 30.5938 17.8124C30.5938 18.0312 30.6562 18.0937 30.875 18.0937C31.2812 18.0624 31.7188 18.0937 32.1563 18.0624C32.3438 18.0624 32.4062 18.0937 32.4062 18.3124V19.7499C32.4062 19.9062 32.3438 19.9687 32.1875 19.9687C31.75 19.9374 31.3125 19.9687 30.8437 19.9374C30.6562 19.9374 30.5938 19.9999 30.5938 20.1874C30.625 20.6249 30.5937 21.0624 30.625 21.4999C30.625 21.6874 30.5625 21.7812 30.375 21.7812C29.9062 21.7499 29.4375 21.7499 28.9687 21.7812C28.7812 21.7812 28.7188 21.7187 28.7188 21.5312C28.75 21.0624 28.7187 20.6249 28.75 20.1562C28.75 19.9999 28.6875 19.9374 28.5312 19.9374C28.0938 19.9687 27.6562 19.9374 27.2188 19.9687C26.9688 19.9687 26.9375 19.8749 26.9375 19.6874C26.9375 19.2499 26.9687 18.8124 26.9375 18.3749C26.9062 18.1249 27.0312 18.0624 27.25 18.0624C27.6875 18.0937 28.0938 18.0624 28.5312 18.0937C28.6875 18.0937 28.75 18.0312 28.75 17.8749C28.7187 17.4374 28.75 16.9687 28.7188 16.5312C28.7188 16.3437 28.7812 16.2812 28.9687 16.2812C29.2187 16.3124 29.4375 16.2812 29.6875 16.2812ZM39.0163 7.64901C38.9747 7.7112 38.96 7.73182 38.9466 7.75276C38.8709 7.8662 38.9294 8.09557 38.7391 8.09214C38.5703 8.08839 38.6131 7.87839 38.5534 7.7637C38.5378 7.73307 38.5191 7.70495 38.4669 7.61963C38.4669 7.77714 38.4694 7.8662 38.4669 7.95651C38.4644 8.01745 38.4778 8.09432 38.3813 8.09932C38.2838 8.10432 38.2897 8.0262 38.2884 7.96495C38.2863 7.75245 38.2863 7.54151 38.2875 7.33026C38.2875 7.25839 38.2763 7.17526 38.3888 7.17276C38.4731 7.17151 38.5462 7.16807 38.5816 7.27776C38.6266 7.41214 38.6425 7.56214 38.7463 7.69151C38.8453 7.56589 38.8622 7.42057 38.9 7.28745C38.9319 7.17901 38.9991 7.17182 39.0869 7.17182C39.1981 7.17276 39.1931 7.25089 39.1944 7.32432C39.1956 7.53682 39.1956 7.74776 39.1931 7.96026C39.1919 8.01995 39.2003 8.09932 39.1053 8.10057C39.01 8.10057 39.0172 8.02495 39.0163 7.96245C39.0138 7.87214 39.0163 7.78307 39.0163 7.64901ZM37.8562 7.17026C37.8834 7.17026 37.9125 7.16557 37.9381 7.17026C38.0397 7.18995 38.1969 7.11182 38.23 7.23276C38.275 7.40245 38.0969 7.31714 38.0212 7.35339C37.9456 7.38995 37.9603 7.45714 37.9587 7.51839C37.9553 7.66464 37.9566 7.8112 37.9566 7.95776C37.9566 8.03839 37.9409 8.10557 37.8369 8.10151C37.7416 8.09838 37.7453 8.02839 37.7453 7.96495C37.7425 7.82788 37.742 7.69078 37.7441 7.5537C37.7478 7.43651 37.7491 7.32651 37.5806 7.34245C37.5219 7.34745 37.4706 7.33026 37.4706 7.25589C37.4706 7.15339 37.55 7.17401 37.6088 7.17151C37.6916 7.16776 37.7734 7.17026 37.8566 7.17026H37.8562Z" fill="#1E232B"/>
</svg>
