<svg width="40" height="40" viewBox="0 0 40 40" fill="none" xmlns="http://www.w3.org/2000/svg">
<path d="M14.8803 30.6624C8.88277 32.338 18.5293 35.7996 26.1662 32.5277C24.9153 32.0415 24.0181 31.4805 24.0181 31.4805C20.6128 32.1243 19.0331 32.1749 15.9418 31.8218C13.3906 31.5296 14.8803 30.6624 14.8803 30.6624ZM25.2518 27.3937C20.7381 28.2621 18.1309 28.2343 14.8287 27.8937C12.2753 27.6296 13.9468 26.3921 13.9468 26.3921C7.34152 28.5846 17.624 31.0724 26.8559 28.3721C25.8746 28.0265 25.2518 27.3937 25.2518 27.3937ZM28.789 8.46397C28.7893 8.46397 15.4356 11.798 21.8131 19.1474C23.6956 21.3146 21.3193 23.263 21.3193 23.263C21.3193 23.263 26.0971 20.7971 23.9034 17.7077C21.8537 14.828 20.2825 13.3974 28.789 8.46397ZM31.9134 33.8215C31.9134 33.8215 33.0162 34.7309 30.6984 35.4337C26.2915 36.7687 12.3528 37.1712 8.48121 35.4871C7.09058 34.8815 9.69965 34.0418 10.5206 33.8646C11.3765 33.6793 11.8653 33.713 11.8653 33.713C10.3178 32.6234 1.86121 35.8537 7.5709 36.7802C23.14 39.304 35.9512 35.6437 31.9134 33.8215ZM26.5625 24.3424C27.3109 23.8318 28.3446 23.3884 28.3446 23.3884C28.3446 23.3884 25.3996 23.9149 22.4656 24.1615C18.8737 24.4627 15.0209 24.5221 13.0868 24.2633C8.50808 23.6512 15.5971 21.9671 15.5971 21.9671C15.5971 21.9671 12.8434 21.7809 9.4584 23.4184C5.45465 25.3543 19.3618 26.2368 26.5625 24.3424ZM28.3153 29.0752C28.2815 29.1658 28.169 29.2677 28.169 29.2677C37.9418 26.6987 34.3487 20.2118 29.6759 21.8537C29.2659 21.9987 29.0509 22.3358 29.0509 22.3358C29.0509 22.3358 29.31 22.2315 29.8878 22.1108C32.25 21.6187 35.6343 25.273 28.3153 29.0752ZM20.0565 21.8965C18.6146 18.6374 13.7253 15.7862 20.0587 10.7843C27.9559 4.55085 23.9037 0.49585 23.9037 0.49585C25.5381 6.93585 18.1378 8.88116 15.4665 12.8918C13.6475 15.6246 16.3593 18.5612 20.0565 21.8965ZM28.5796 38.0677C22.5837 39.1965 15.1878 39.0649 10.8025 38.3409C10.8025 38.3409 11.7006 39.0846 16.3168 39.3818C23.3406 39.8309 34.1293 39.1318 34.3843 35.808C34.3846 35.808 33.8937 37.068 28.5796 38.0677Z" fill="#1E232B"/>
</svg>
