<svg width="40" height="40" viewBox="0 0 40 40" fill="none" xmlns="http://www.w3.org/2000/svg">
<path d="M15.4159 19.375H24.5281C27.0647 19.375 29.0628 17.2287 29.0628 14.6815V5.99466C29.0628 3.52216 26.9903 1.66466 24.5144 1.25216C22.9475 0.991222 21.3284 0.872472 19.7684 0.879972C18.2091 0.88716 16.7647 1.01997 15.4544 1.25216C11.5934 1.93372 10.9378 3.36185 10.9378 5.99466V9.37497H20.0003V10.625H7.43031C4.77906 10.625 2.45719 12.2212 1.73125 15.2534C0.893435 18.7284 0.856248 20.8531 1.73125 24.4815C2.37969 27.1822 3.92812 29.0625 6.57969 29.0625H9.68781V24.985C9.68781 21.9734 12.3216 19.375 15.4159 19.375ZM14.8416 7.1531C13.8959 7.1531 13.1297 6.37841 13.1297 5.42028C13.1297 4.4581 13.8956 3.67622 14.8416 3.67622C15.7837 3.67622 16.5537 4.4581 16.5537 5.42028C16.5534 6.37841 15.7834 7.1531 14.8416 7.1531ZM38.2131 15.2534C37.5575 12.6134 36.3059 10.625 33.6509 10.625H30.3128V14.6815C30.3128 17.8222 27.5647 20.3125 24.5281 20.3125H15.4159C12.9197 20.3125 10.9378 22.6018 10.9378 25.1018V33.7893C10.9378 36.2612 13.0456 37.7156 15.4572 38.425C18.3453 39.274 21.0803 39.4275 24.5356 38.425C26.8322 37.7597 29.0628 36.4215 29.0628 33.7893V30.3125H20.0003V29.0625H33.6509C36.3022 29.0625 37.2906 27.2575 38.2131 24.4812C39.1653 21.6234 39.1244 18.919 38.2131 15.2534ZM25.1022 32.6303C26.0481 32.6303 26.8144 33.405 26.8144 34.3637C26.8144 35.325 26.0484 36.1072 25.1022 36.1072C24.16 36.1072 23.3903 35.3253 23.3903 34.3637C23.3903 33.405 24.16 32.6303 25.1022 32.6303Z" fill="#1E232B"/>
</svg>
