<svg width="40" height="40" viewBox="0 0 40 40" fill="none" xmlns="http://www.w3.org/2000/svg">
<path fill-rule="evenodd" clip-rule="evenodd" d="M31.4409 22.7733C31.1087 24.3737 29.6331 28.4815 24.9247 30.7043L23.0341 28.5793L19.8428 31.7858C18.0275 31.7616 16.2425 31.3178 14.6272 30.4891C13.0119 29.6605 11.6102 28.4695 10.5316 27.0093C10.8709 27.1155 11.22 27.1815 11.5741 27.2062C12.0966 27.2155 12.6631 27.024 12.6631 26.1465V17.4918C12.6705 17.2693 12.6258 17.0481 12.5325 16.846C12.4392 16.6438 12.2999 16.4663 12.1258 16.3275C11.9517 16.1888 11.7475 16.0926 11.5296 16.0468C11.3118 16.001 11.0862 16.0068 10.8709 16.0637C9.39405 16.404 8.21343 20.0893 8.21343 20.0893C8.19712 18.3877 8.55151 16.7029 9.25198 15.152C9.95245 13.6012 10.9822 12.2214 12.2697 11.1087C13.9642 9.64276 16.0385 8.68556 18.2534 8.34741C16.6409 9.26679 15.7353 10.7658 15.7353 12.023C15.7353 14.0471 16.9534 13.8018 17.3147 13.504V25.1849C17.3759 25.3312 17.4562 25.4693 17.5528 25.5962C17.7142 25.819 17.9264 26 18.1719 26.1242C18.4174 26.2484 18.689 26.3122 18.9641 26.3102C20.1834 26.3102 21.7666 24.9174 21.7666 24.9174V15.4618C21.7666 14.4999 21.0416 13.339 20.3153 12.9399C20.3153 12.9399 21.6591 12.7018 22.6969 13.4952C22.8915 13.2572 23.0985 13.0295 23.3169 12.813C25.7378 10.4387 28.0169 9.76241 29.9159 9.42429C29.9159 9.42429 26.4637 12.1377 26.4637 15.778C26.4637 18.4855 26.5334 25.0871 26.5334 25.0871C27.8141 26.3237 29.7194 24.5377 31.4406 22.7737L31.4409 22.7733Z" fill="#1E232B"/>
<path fill-rule="evenodd" clip-rule="evenodd" d="M20.0004 0.744629C9.36699 0.744629 0.745117 9.3665 0.745117 19.9999C0.745117 30.6334 9.36699 39.2553 20.0004 39.2553C30.6339 39.2553 39.2557 30.6334 39.2557 19.9999C39.2557 9.3665 30.6339 0.744629 20.0004 0.744629ZM20.0004 38.4853C9.79168 38.4853 1.51543 30.209 1.51543 19.9999C1.51668 9.7915 9.79293 1.51525 20.0017 1.5165C30.2104 1.5165 38.4854 9.79275 38.4854 20.0015C38.4854 30.2103 30.2092 38.4865 20.0004 38.4865V38.4853Z" fill="#1E232B"/>
</svg>
